<svg width="65" height="72" viewBox="0 0 65 72" fill="none" xmlns="http://www.w3.org/2000/svg">
<g filter="url(#filter0_d)">
<path d="M50.6796 8.93797C40.7265 -4.26516 12.4921 5.58641 10.3593 4.67234C10.3593 4.67234 10.0546 6.60203 11.1718 7.82078C9.74996 8.83641 8.0234 7.10984 8.0234 7.10984C8.0234 7.10984 6.19527 11.3755 8.12496 14.0161C5.07809 17.977 8.73434 38.5942 8.73434 38.5942H55.3515C55.3515 38.5942 60.9375 22.5473 54.539 11.477C53.2187 8.93797 51.7968 10.4614 50.6796 8.93797Z" fill="#DBB471"/>
<path d="M55.8594 30.062C55.6563 31.1792 55.4531 32.1948 55.1484 32.8042C54.6406 33.8198 53.5234 34.4292 53.5234 34.4292C53.5234 34.4292 53.8281 32.2964 53.7266 29.2495C52.3047 8.83544 46.3125 18.5854 32.5 18.5854C18.6875 18.5854 12.6953 8.83544 11.375 29.3511C11.2734 32.2964 11.5781 34.5308 11.5781 34.5308C11.5781 34.5308 10.4609 33.9214 9.95313 32.9058C9.64844 32.2964 9.44531 31.2808 9.24219 30.1636C7.41406 29.6558 5.17969 30.062 5.17969 35.4448C5.17969 38.7964 6.39844 41.437 10.3594 41.7417C12.0859 55.1479 15.1328 57.2808 25.1875 62.0542C27.7266 63.2729 29.4531 62.9683 32.5 62.9683C35.5469 62.9683 37.2734 63.2729 39.9141 62.0542C50.0703 57.2808 53.1172 55.1479 54.7422 41.7417C58.7031 41.437 59.9219 38.6948 59.9219 35.4448C59.9219 30.062 57.5859 29.6558 55.8594 30.062" fill="#FFDD67"/>
<path d="M41.6406 49.6641C41.6406 53.1172 37.0703 54.8438 32.5 54.8438C27.9297 54.8438 23.3594 53.1172 23.3594 49.6641C23.3594 49.6641 23.3594 48.75 24.2734 48.75H40.7266C41.6406 48.75 41.6406 49.6641 41.6406 49.6641" fill="#937237"/>
<path d="M20.3125 29.0464C15.2344 29.0464 13.2031 30.8745 13.2031 32.7026C13.2031 34.5308 13.2031 37.1714 19.9063 37.1714C26.4063 37.1714 27.4219 36.3589 27.4219 33.6167C27.4219 31.7886 25.3906 29.0464 20.3125 29.0464Z" fill="#F5F5F5"/>
<path d="M20.8203 36.6636C23.3444 36.6636 25.3906 34.6174 25.3906 32.0933C25.3906 29.5691 23.3444 27.5229 20.8203 27.5229C18.2962 27.5229 16.25 29.5691 16.25 32.0933C16.25 34.6174 18.2962 36.6636 20.8203 36.6636Z" fill="#0A84A5"/>
<path d="M22.3438 32.0933C22.3438 32.9058 21.6328 33.6167 20.8203 33.6167C20.0078 33.6167 19.2969 32.9058 19.2969 32.0933C19.2969 31.2808 20.0078 30.5698 20.8203 30.5698C21.6328 30.5698 22.3438 31.2808 22.3438 32.0933Z" fill="#231F20"/>
<path d="M13.2031 32.6016C13.2031 25.4922 27.4219 25.4922 27.4219 33.6172C25.3906 27.5234 15.2344 27.5234 13.2031 32.6016Z" fill="#664E27"/>
<path d="M44.6875 29.0464C49.7656 29.0464 51.7969 30.8745 51.7969 32.7026C51.7969 34.5308 51.7969 37.1714 45.0938 37.1714C38.5938 37.1714 37.5781 36.3589 37.5781 33.6167C37.5781 31.7886 39.6094 29.0464 44.6875 29.0464Z" fill="#F5F5F5"/>
<path d="M44.1797 36.6636C46.7038 36.6636 48.75 34.6174 48.75 32.0933C48.75 29.5691 46.7038 27.5229 44.1797 27.5229C41.6556 27.5229 39.6094 29.5691 39.6094 32.0933C39.6094 34.6174 41.6556 36.6636 44.1797 36.6636Z" fill="#0A84A5"/>
<path d="M42.6562 32.0933C42.6562 32.9058 43.3672 33.6167 44.1797 33.6167C44.9922 33.6167 45.7031 32.9058 45.7031 32.0933C45.7031 31.2808 44.9922 30.5698 44.1797 30.5698C43.3672 30.5698 42.6562 31.2808 42.6562 32.0933Z" fill="#231F20"/>
<path d="M51.7969 32.6016C51.7969 25.4922 37.5781 25.4922 37.5781 33.6172C39.6094 27.5234 49.7656 27.5234 51.7969 32.6016Z" fill="#664E27"/>
<path d="M32.5 45.7031C28.2344 45.7031 26.1015 42.6562 28.2344 42.6562H36.7656C38.8984 42.6562 36.7656 45.7031 32.5 45.7031Z" fill="#EBA352"/>
</g>
<defs>
<filter id="filter0_d" x="-4" y="0" width="73" height="73" filterUnits="userSpaceOnUse" color-interpolation-filters="sRGB">
<feFlood flood-opacity="0" result="BackgroundImageFix"/>
<feColorMatrix in="SourceAlpha" type="matrix" values="0 0 0 0 0 0 0 0 0 0 0 0 0 0 0 0 0 0 127 0"/>
<feOffset dy="4"/>
<feGaussianBlur stdDeviation="2"/>
<feColorMatrix type="matrix" values="0 0 0 0 0 0 0 0 0 0 0 0 0 0 0 0 0 0 0.25 0"/>
<feBlend mode="normal" in2="BackgroundImageFix" result="effect1_dropShadow"/>
<feBlend mode="normal" in="SourceGraphic" in2="effect1_dropShadow" result="shape"/>
</filter>
</defs>
</svg>
