<svg width="73" height="67" viewBox="0 0 73 67" fill="none" xmlns="http://www.w3.org/2000/svg">
<g filter="url(#filter0_d)">
<path d="M69 58.9062H4L9.78906 12.1875H63.2109L69 58.9062Z" fill="#89664C"/>
<path d="M30.6094 8.53174C24.7188 8.53174 13.75 10.4614 10.1953 9.34424C10.1953 9.34424 11.1094 29.352 6.13281 57.4849C13.1406 56.977 22.4844 53.0161 29.3906 53.0161C36.3984 53.0161 36.3984 57.4849 36.3984 57.4849V13.5083C36.6016 13.5083 36.5 8.53174 30.6094 8.53174Z" fill="#B0BDC6"/>
<path d="M30.711 7.82031C24.8204 7.82031 15.7813 9.64844 13.0391 6.09375C13.0391 6.09375 13.9532 28.7422 7.85944 54.0313C10.0938 57.1797 22.0782 52.9141 29.086 52.9141C36.0938 52.9141 36.5001 57.4844 36.5001 57.4844V12.7969C36.6016 12.7969 36.6016 7.82031 30.711 7.82031" fill="#E1EBEF"/>
<path d="M29.4921 53.0151C22.4843 53.0151 10.1953 57.4839 6.23431 57.4839H36.6015C36.6015 57.4839 36.4999 53.0151 29.4921 53.0151Z" fill="#94989B"/>
<path d="M15.9843 14.4214L16.0859 13.6089C16.9999 13.6089 18.7265 13.3042 20.6562 12.8979C23.2968 12.3901 26.3437 11.7808 28.7812 11.7808C32.0312 11.7808 33.0468 12.4917 33.2499 12.5933L32.9453 12.8979L32.6406 13.2026C32.6406 13.2026 31.6249 12.5933 28.7812 12.5933C26.4453 12.5933 23.4999 13.2026 20.8593 13.7104C18.8281 14.1167 17.1015 14.4214 15.9843 14.4214" fill="#7D8B91"/>
<path d="M15.5782 18.7881L15.6797 17.874C16.6954 17.874 18.4219 17.5693 20.3516 17.1631C23.0938 16.6553 26.1407 16.0459 28.5782 16.0459C31.8282 16.0459 32.9454 16.7568 33.0469 16.8584L32.8438 17.2646L32.5391 17.6709C32.5391 17.6709 31.5235 16.96 28.5782 16.96C26.1407 16.96 23.1954 17.5693 20.4532 18.0771C18.4219 18.4834 16.6954 18.7881 15.5782 18.7881" fill="#7D8B91"/>
<path d="M15.1719 23.3589L15.2734 22.4448C16.2891 22.4448 18.0156 22.0386 20.0469 21.6323C22.7891 21.0229 25.9375 20.4136 28.4766 20.4136C31.8281 20.4136 32.9453 21.2261 33.0469 21.3276L32.7422 21.7339L32.4375 22.1401C32.4375 22.1401 31.4219 21.4292 28.375 21.4292C25.9375 21.4292 22.8906 22.0386 20.1484 22.6479C18.1172 23.0542 16.2891 23.3589 15.1719 23.3589" fill="#7D8B91"/>
<path d="M14.7656 28.1318L14.8672 27.1162C15.8828 27.1162 17.7109 26.71 19.7422 26.3037C22.5859 25.6943 25.7344 25.085 28.375 25.085C31.8281 25.085 32.9453 25.8975 33.0469 25.999L32.6406 26.4053L32.4375 26.8115C32.4375 26.8115 31.4219 26.1006 28.2734 26.1006C25.7344 26.1006 22.5859 26.71 19.8438 27.3193C17.7109 27.7256 15.8828 28.1318 14.7656 28.1318" fill="#7D8B91"/>
<path d="M14.2578 33.1094L14.3594 32.0938C15.375 32.0938 17.2031 31.6875 19.3359 31.2812C22.1797 30.6719 25.4297 29.9609 28.0703 29.9609C31.5234 29.9609 32.7422 30.7734 32.8438 30.875L32.5391 31.2812L32.2344 31.6875C32.2344 31.6875 31.2188 30.9766 27.9688 30.9766C25.4297 30.9766 22.1797 31.6875 19.3359 32.2969C17.3047 32.7031 15.375 33.1094 14.2578 33.1094" fill="#7D8B91"/>
<path d="M13.75 38.2891L13.8516 37.2734C14.8672 37.2734 16.7969 36.8672 18.9297 36.3594C21.875 35.75 25.2266 35.0391 27.8672 35.0391C31.4219 35.0391 32.6406 35.9531 32.7422 36.0547L32.4375 36.4609L32.1328 36.8672C32.1328 36.8672 31.0156 36.0547 27.7656 36.0547C25.125 36.0547 21.875 36.7656 18.9297 37.375C16.8984 37.8828 14.9688 38.2891 13.75 38.2891Z" fill="#7D8B91"/>
<path d="M13.2422 43.6714L13.3437 42.5542C14.4609 42.5542 16.2891 42.1479 18.5234 41.6401C21.5703 40.9292 24.9219 40.2183 27.6641 40.2183C31.3203 40.2183 32.5391 41.1323 32.6406 41.2339L32.4375 41.7417L32.1328 42.1479C32.1328 42.1479 31.0156 41.3355 27.6641 41.3355C25.0234 41.3355 21.6719 42.0464 18.625 42.7573C16.4922 43.2651 14.4609 43.6714 13.2422 43.6714" fill="#7D8B91"/>
<path d="M12.7344 49.3589L12.8359 48.2417C13.9531 48.2417 15.8828 47.8354 18.1172 47.3276C21.1641 46.6167 24.7188 45.8042 27.4609 45.8042C31.2188 45.8042 32.4375 46.8198 32.5391 46.9214L32.2344 47.3276L32.0313 47.7339C32.0313 47.7339 30.9141 46.8198 27.4609 46.8198C24.7188 46.8198 21.2656 47.6323 18.2188 48.3433C15.9844 48.8511 13.9531 49.3589 12.7344 49.3589" fill="#7D8B91"/>
<path d="M42.3906 8.53174C48.2812 8.53174 59.25 10.4614 62.8047 9.34424C62.8047 9.34424 61.8906 29.352 66.8672 57.4849C59.8594 56.977 50.5156 53.0161 43.6094 53.0161C36.6016 53.0161 36.6016 57.4849 36.6016 57.4849V13.5083C36.5 13.5083 36.5 8.53174 42.3906 8.53174" fill="#B0BDC6"/>
<path d="M42.2891 7.82031C48.1797 7.82031 57.2187 9.64844 59.9609 6.09375C59.9609 6.09375 59.0469 28.7422 65.1406 54.0313C62.9063 57.1797 50.9219 52.9141 43.9141 52.9141C36.9062 52.9141 36.5 57.4844 36.5 57.4844V12.7969C36.5 12.7969 36.5 7.82031 42.2891 7.82031" fill="#D9E3E8"/>
<path d="M43.5078 53.0151C50.5156 53.0151 62.8047 57.4839 66.7656 57.4839H36.5C36.5 57.4839 36.5 53.0151 43.5078 53.0151Z" fill="#94989B"/>
<path d="M57.0156 14.4214L56.914 13.6089C55.9999 13.6089 54.2734 13.3042 52.3437 12.8979C49.7031 12.3901 46.6562 11.7808 44.2187 11.7808C40.9687 11.7808 39.9531 12.4917 39.7499 12.5933L40.0546 12.8979L40.3593 13.2026C40.3593 13.2026 41.3749 12.5933 44.2187 12.5933C46.5546 12.5933 49.4999 13.2026 52.1406 13.7104C54.2734 14.1167 55.9999 14.4214 57.0156 14.4214" fill="#7D8B91"/>
<path d="M57.4218 18.7881L57.3202 17.874C56.3046 17.874 54.578 17.5693 52.6483 17.1631C49.9061 16.6553 46.8593 16.0459 44.4218 16.0459C41.1718 16.0459 40.0546 16.7568 39.953 16.8584L40.2577 17.1631L40.5624 17.5693C40.5624 17.5693 41.578 16.8584 44.5233 16.8584C46.9608 16.8584 49.9061 17.4678 52.6483 17.9756C54.578 18.4834 56.3046 18.7881 57.4218 18.7881" fill="#7D8B91"/>
<path d="M57.828 23.3589L57.7264 22.4448C56.7108 22.4448 54.9843 22.0386 52.953 21.6323C50.2108 21.0229 47.0624 20.4136 44.5233 20.4136C41.1718 20.4136 40.0546 21.2261 39.953 21.3276L40.2577 21.7339L40.5624 22.1401C40.5624 22.1401 41.578 21.4292 44.6249 21.4292C47.0624 21.4292 50.1093 22.0386 52.8514 22.6479C54.9843 23.0542 56.7108 23.3589 57.828 23.3589" fill="#7D8B91"/>
<path d="M58.3359 28.1318L58.2344 27.1162C57.2188 27.1162 55.3906 26.71 53.3594 26.3037C50.5156 25.6943 47.3672 25.085 44.7266 25.085C41.2734 25.085 40.1563 25.8975 40.0547 25.999L40.3594 26.4053L40.6641 26.8115C40.6641 26.8115 41.6797 26.1006 44.8281 26.1006C47.3672 26.1006 50.5156 26.71 53.2578 27.3193C55.2891 27.7256 57.2187 28.1318 58.3359 28.1318" fill="#7D8B91"/>
<path d="M58.7421 33.1094L58.6406 32.0938C57.6249 32.0938 55.7968 31.6875 53.664 31.2812C50.8203 30.6719 47.5702 29.9609 44.9296 29.9609C41.4765 29.9609 40.2578 30.7734 40.1562 30.875L40.4609 31.2812L40.7656 31.6875C40.7656 31.6875 41.7812 30.9766 45.0312 30.9766C47.5703 30.9766 50.8203 31.6875 53.664 32.2969C55.6952 32.7031 57.6249 33.1094 58.7421 33.1094" fill="#7D8B91"/>
<path d="M59.2499 38.2891L59.1484 37.2734C58.1327 37.2734 56.2031 36.8672 54.0702 36.3594C51.1249 35.75 47.7734 35.0391 45.1328 35.0391C41.5781 35.0391 40.3593 35.9531 40.2578 36.0547L40.5624 36.4609L40.8671 36.8672C40.8671 36.8672 41.9843 36.0547 45.2343 36.0547C47.8749 36.0547 51.1249 36.7656 54.0702 37.375C56.1015 37.8828 58.0312 38.2891 59.2499 38.2891Z" fill="#7D8B91"/>
<path d="M59.7578 43.6714L59.6562 42.5542C58.539 42.5542 56.7109 42.1479 54.4765 41.6401C51.4296 40.9292 48.0781 40.2183 45.3359 40.2183C41.6796 40.2183 40.4609 41.1323 40.3593 41.2339L40.664 41.6401L40.9687 42.0464C40.9687 42.0464 42.0859 41.2339 45.4374 41.2339C48.0781 41.2339 51.4296 41.9448 54.4765 42.6558C56.6093 43.2651 58.539 43.6714 59.7578 43.6714" fill="#7D8B91"/>
<path d="M60.2655 49.3589L60.1639 48.2417C59.0468 48.2417 57.1171 47.8354 54.8827 47.3276C51.8358 46.6167 48.2811 45.8042 45.5389 45.8042C41.7811 45.8042 40.5624 46.8198 40.4608 46.9214L40.7655 47.3276L41.0702 47.8354C41.0702 47.8354 42.1874 46.9214 45.6405 46.9214C48.3827 46.9214 51.8358 47.7339 54.8827 48.4448C57.0155 48.8511 59.0468 49.3589 60.2655 49.3589" fill="#7D8B91"/>
</g>
<defs>
<filter id="filter0_d" x="0" y="0" width="73" height="73" filterUnits="userSpaceOnUse" color-interpolation-filters="sRGB">
<feFlood flood-opacity="0" result="BackgroundImageFix"/>
<feColorMatrix in="SourceAlpha" type="matrix" values="0 0 0 0 0 0 0 0 0 0 0 0 0 0 0 0 0 0 127 0"/>
<feOffset dy="4"/>
<feGaussianBlur stdDeviation="2"/>
<feColorMatrix type="matrix" values="0 0 0 0 0 0 0 0 0 0 0 0 0 0 0 0 0 0 0.25 0"/>
<feBlend mode="normal" in2="BackgroundImageFix" result="effect1_dropShadow"/>
<feBlend mode="normal" in="SourceGraphic" in2="effect1_dropShadow" result="shape"/>
</filter>
</defs>
</svg>
