<svg width="34" height="34" viewBox="0 0 34 34" fill="none" xmlns="http://www.w3.org/2000/svg">
<path fill-rule="evenodd" clip-rule="evenodd" d="M17 0C7.6075 0 0 7.79992 0 17.43C0 25.1428 4.86625 31.6572 11.6237 33.9667C12.4737 34.1192 12.7925 33.5963 12.7925 33.1388C12.7925 32.7248 12.7713 31.3522 12.7713 29.8924C8.5 30.6986 7.395 28.8249 7.055 27.8444C6.86375 27.3433 6.035 25.7964 5.3125 25.3824C4.7175 25.0556 3.8675 24.2495 5.29125 24.2277C6.63 24.2059 7.58625 25.4914 7.905 26.0143C9.435 28.6506 11.8787 27.9098 12.8562 27.4522C13.005 26.3193 13.4512 25.5567 13.94 25.121C10.1575 24.6852 6.205 23.1819 6.205 16.5149C6.205 14.6194 6.86375 13.0507 7.9475 11.8306C7.7775 11.3949 7.1825 9.60828 8.1175 7.21166C8.1175 7.21166 9.54125 6.75412 12.7925 8.99823C14.1525 8.60606 15.5975 8.40997 17.0425 8.40997C18.4875 8.40997 19.9325 8.60606 21.2925 8.99823C24.5437 6.73234 25.9675 7.21166 25.9675 7.21166C26.9025 9.60828 26.3075 11.3949 26.1375 11.8306C27.2213 13.0507 27.88 14.5976 27.88 16.5149C27.88 23.2037 23.9062 24.6852 20.1237 25.121C20.74 25.6657 21.2712 26.7115 21.2712 28.3455C21.2712 30.6768 21.25 32.5505 21.25 33.1388C21.25 33.5963 21.5687 34.141 22.4187 33.9667C25.7935 32.7985 28.726 30.5747 30.8035 27.6082C32.881 24.6417 33.999 21.082 34 17.43C34 7.79992 26.3925 0 17 0Z" fill="#EDF2F4"/>
</svg>
