<svg width="16" height="16" viewBox="0 0 16 16" fill="none" xmlns="http://www.w3.org/2000/svg">
<path d="M13.75 8.7749L15.625 10.6249L7.30002 14.5999C7.30002 14.5999 6.20002 15.0999 5.67502 14.2999C3.62502 11.0999 13.75 8.7749 13.75 8.7749Z" fill="#962C2C"/>
<path d="M7.10004 12.2752C7.10004 12.2752 5.50004 12.8252 5.80004 13.9002C6.10004 15.0002 7.37504 14.3252 7.37504 14.3252L15.275 10.6502C15.275 10.6502 14.825 9.4752 15.625 8.7002L7.10004 12.2752Z" fill="#D9E3E8"/>
<path d="M8.42505 1.25L16 8.625L7.05005 12.125L1.30005 3.175L8.42505 1.25Z" fill="#ED4C5C"/>
<path d="M8.65002 2.9248L10.1 4.4748L4.67502 6.4248L3.40002 4.4498L8.65002 2.9248Z" fill="white"/>
<path d="M15.2501 9.4999L9.9751 11.6499L15.1751 9.2749L15.2501 9.4999Z" fill="#94989B"/>
<path d="M15.175 10.1499L9.55005 12.4749L15.075 9.8999L15.175 10.1499Z" fill="#94989B"/>
<path d="M15.225 10.4999L8.05005 13.5999L15.125 10.2749L15.225 10.4999Z" fill="#94989B"/>
<path d="M5.675 14.2998C4.8 12.4748 7.05 12.1498 7.05 12.1498L1.3 3.17484C1.3 3.17484 0 3.14984 0 4.49984C0 5.04984 0.25 5.47484 0.25 5.47484L5.675 14.2998" fill="#C94747"/>
</svg>
