<svg width="69" height="71" viewBox="0 0 69 71" fill="none" xmlns="http://www.w3.org/2000/svg">
<g filter="url(#filter0_d)">
<path d="M63.9531 21.2266C57.6563 15.5391 51.3594 9.75 45.0625 4.0625C35.8203 18.0781 20.1797 30.5703 5.35156 39.6094C4.94531 41.5391 4.53906 43.3672 4.03125 45.1953C10.5313 51.0859 17.0313 57.0781 23.5313 62.9688C38.8672 54.5391 55.1172 42.5547 64.9688 28.9453C64.6641 26.4062 64.2578 23.8672 63.9531 21.2266Z" fill="#699635"/>
<path d="M24.75 55.4531C18.3516 49.5625 11.9531 43.6719 5.55469 37.8828C21.5 28.8437 34.9062 16.5547 44.7578 2.03125C51.1562 7.92188 57.5547 13.7109 63.9531 19.6016C54.1016 34.125 40.6953 46.4141 24.75 55.4531" fill="#83BF4F"/>
<path d="M23.125 51.5942C18.8594 47.7349 14.5937 43.7739 10.3281 39.9145C10.6328 39.7114 10.8359 39.6099 11.1406 39.4067C11.9531 38.8989 12.1563 37.9849 11.4453 37.2739L10.8359 36.6645C23.7344 28.7427 34.9062 18.5864 43.6406 6.80518L44.25 7.41455C44.9609 8.02393 45.9766 7.92236 46.5859 7.21143C46.7891 7.0083 46.8906 6.70361 47.0938 6.50049C51.3594 10.3599 55.625 14.3208 59.8906 18.1802C59.6875 18.3833 59.5859 18.688 59.3828 18.8911C58.7734 19.7036 58.875 20.8208 59.5859 21.5317L60.1953 22.1411C51.4609 33.8208 40.2891 43.977 27.3906 51.8989L26.7813 51.2895C26.0703 50.6802 24.8516 50.5786 23.9375 51.0864C23.6328 51.2895 23.4297 51.3911 23.125 51.5942V51.5942ZM13.0703 40.0161C16.5234 43.1646 19.9766 46.313 23.5313 49.563C24.8516 49.1567 26.375 49.2583 27.5938 49.8677C39.375 42.352 49.6328 33.0083 57.8594 22.1411C57.1484 21.0239 57.0469 19.6021 57.5547 18.3833C54.1016 15.2349 50.6484 12.0864 47.0938 8.83643C46.1797 9.64893 44.8594 9.75049 43.7422 9.14111C35.5156 20.1099 25.2578 29.4536 13.4766 36.9692C14.0859 37.9849 13.9844 39.2036 13.0703 40.0161" fill="#699635"/>
<path d="M22.3125 37.8833C23.4297 37.477 24.6484 37.5786 25.4609 38.2895C24.9531 38.6958 24.3438 39.1021 23.8359 39.5083C23.6328 39.3052 23.125 39.3052 22.9219 39.5083C22.6172 39.7114 22.5156 40.0161 22.8203 40.2192C23.0234 40.4224 23.5313 40.4224 23.8359 40.2192C25.0547 39.4067 26.7812 39.3052 27.6953 40.2192C28.4062 40.9302 28.5078 41.9458 27.7969 42.7583C28 42.9614 28.2031 43.063 28.4062 43.2661C27.8984 43.5708 27.3906 43.977 26.8828 44.2817C26.6797 44.0786 26.4766 43.8755 26.2734 43.7739C25.1562 44.0786 23.9375 43.977 23.2266 43.2661C23.8359 42.8599 24.3438 42.5552 24.9531 42.1489C25.1563 42.352 25.6641 42.352 25.9688 42.1489C26.2734 41.9458 26.2734 41.6411 26.0703 41.438C25.8672 41.2349 25.4609 41.2349 25.1562 41.438C24.4453 41.9458 23.5313 42.1489 22.7188 42.0474C22.1094 41.9458 21.6016 41.7427 21.1953 41.438C20.4844 40.727 20.4844 39.813 21.0937 39.0005C20.8906 38.8989 20.7891 38.6958 20.5859 38.4927C21.0937 38.188 21.6016 37.7817 22.1094 37.4771C22.0078 37.5786 22.2109 37.6802 22.3125 37.8833" fill="#699635"/>
<path d="M45.875 16.1489C46.7891 15.5396 47.9063 15.5396 48.6172 16.2505L47.3984 17.7739C47.1953 17.5708 46.7891 17.5708 46.5859 17.8755C46.3828 18.1802 46.3828 18.5864 46.5859 18.7896C46.7891 18.9927 47.1953 18.9927 47.3984 18.688C48.3125 17.5708 49.8359 17.3677 50.75 18.1802C51.4609 18.8911 51.6641 20.0083 51.2578 21.0239C51.4609 21.2271 51.6641 21.3286 51.8672 21.5317C51.4609 22.0396 51.1563 22.4458 50.75 22.9536C50.5469 22.7505 50.3438 22.5474 50.1406 22.4458C49.2266 22.9536 48.2109 22.9536 47.5 22.2427C47.9062 21.7349 48.4141 21.2271 48.8203 20.7192C49.0234 20.9224 49.4297 20.9224 49.6328 20.6177C49.8359 20.313 49.8359 19.9067 49.6328 19.7036C49.4297 19.5005 49.0234 19.5005 48.8203 19.8052C48.3125 20.4146 47.5 20.8208 46.7891 20.8208C46.2812 20.8208 45.7734 20.6177 45.3672 20.313C44.6563 19.6021 44.4531 18.5864 44.8594 17.5708C44.6563 17.4692 44.5547 17.2661 44.3516 17.063C44.7578 16.6567 45.1641 16.1489 45.4687 15.6411C45.4687 15.8442 45.6719 15.9458 45.875 16.1489" fill="#699635"/>
<path d="M42.8281 36.0547C39.5781 39 34.0937 38.8985 30.9453 36.0547C27.7969 33.1094 28 28.5391 31.25 25.5938C34.5 22.6485 39.5781 22.3438 42.7266 25.2891C45.9766 28.1329 46.0781 33.1094 42.8281 36.0547" fill="#699635"/>
<path d="M24.1406 24.8833L43.3359 42.4536C45.5703 40.6255 47.6016 38.6958 49.6328 36.6646L30.5391 19.0942C28.5078 21.0239 26.375 22.9536 24.1406 24.8833Z" fill="#FFDD7D"/>
<path d="M43.4375 50.1719C45.5703 48.5469 47.7031 46.8203 49.7344 45.0938V36.5625C47.7031 38.5937 45.5703 40.5234 43.4375 42.3516V50.1719" fill="#DBB471"/>
<path d="M14.2891 25.0866C15.4063 24.6803 16.3203 24.071 17.2344 23.36C18.1484 22.6491 18.9609 21.9382 19.875 21.1257C20.7891 20.4147 21.7031 19.6022 22.7188 19.0944C23.7344 18.485 25.0547 18.1803 26.1719 18.3835C25.0547 18.5866 24.0391 19.0944 23.125 19.8053C22.2109 20.4147 21.3984 21.2272 20.4844 21.9382C19.5703 22.6491 18.6562 23.4616 17.6406 24.071C16.625 24.6803 15.4063 25.0866 14.2891 25.0866" fill="#8D9998"/>
<path d="M42.4219 33.6179C42.4219 33.6179 47.3984 35.0397 58.9766 31.9929C70.5547 28.946 65.0703 62.2585 43.9453 62.2585C41.6094 62.2585 41.5078 59.3132 48.0078 54.0319C48.0078 54.0319 38.8672 56.1647 42.8281 49.36C42.8281 49.36 36.3281 50.4772 39.2734 45.2975C39.2734 45.2975 40.5938 41.4382 39.375 37.071C39.4766 37.071 40.1875 34.8366 42.4219 33.6179" fill="#E8E8E8"/>
<path d="M64.4609 35.2417C64.664 44.1792 57.5547 59.0073 43.4375 59.0073H43.2344C41.914 61.1401 42.5234 62.3589 43.9453 62.3589C59.9922 62.2573 67 43.1636 64.4609 35.2417Z" fill="#D1D1D1"/>
<path d="M57.1484 40.1172C54.1016 51.0859 41.9141 52 41.9141 52C41.4063 54.3359 42.4219 55.3516 43.7422 55.3516C48.2109 55.4531 56.5391 48.0391 57.1484 40.1172Z" fill="#D1D1D1"/>
<path d="M48.6172 40.1172C41.4062 50.2734 38.8672 46.5156 38.8672 46.5156C37.039 50.5781 41.8125 50.5781 42.625 49.6641C44.9609 47.125 48.7187 41.8438 48.6172 40.1172Z" fill="#D1D1D1"/>
<path d="M43.1328 59.3125C44.3516 57.6875 45.875 56.3672 47.3984 55.0469C48.9219 53.7266 50.4453 52.4062 51.9688 50.9844C53.3906 49.5625 54.8125 47.9375 55.8281 46.1094C56.8438 44.2813 57.3516 42.1484 57.1484 40.1172C56.9453 42.1484 56.2344 44.0781 55.1172 45.7031C54 47.3281 52.6797 48.8516 51.2578 50.2734C49.8359 51.6953 48.3125 53.0156 46.8906 54.5391C45.3672 55.8594 44.0469 57.4844 43.1328 59.3125" fill="#8D9998"/>
<path d="M41.9141 52C42.3203 50.8828 42.9297 49.9687 43.6406 49.0547C44.3516 48.1406 45.0625 47.3281 45.875 46.4141C46.5859 45.5 47.3984 44.5859 47.9062 43.5703C48.5156 42.5547 48.8203 41.2344 48.6172 40.1172C48.4141 41.2344 47.9062 42.25 47.1953 43.1641C46.5859 44.0781 45.7734 44.8906 45.0625 45.8047C44.3516 46.7187 43.5391 47.6328 42.9297 48.6484C42.3203 49.6641 41.9141 50.8828 41.9141 52" fill="#8D9998"/>
<path d="M32.6719 24.5786C32.6719 24.5786 31.25 19.602 34.2969 8.02389C37.3437 -3.55423 4.03125 1.93014 4.03125 23.0551C4.03125 25.3911 6.97656 25.4926 12.2578 18.9926C12.2578 18.9926 10.125 28.1333 16.9297 24.1723C16.9297 24.1723 15.8125 30.6723 20.9922 27.727C20.9922 27.727 24.8516 26.4067 29.2187 27.6255C29.2187 27.5239 31.4531 26.813 32.6719 24.5786" fill="#E8E8E8"/>
<path d="M31.0469 2.53891C22.1094 2.33579 7.28125 9.44516 7.28125 23.5624V23.7655C5.14844 24.9842 4.03125 24.4764 4.03125 23.0545C4.03125 7.00766 23.125 -0.000150099 31.0469 2.53891Z" fill="#D1D1D1"/>
<path d="M26.1719 9.85107C15.2031 12.8979 14.2891 25.0855 14.2891 25.0855C11.9531 25.5933 10.9375 24.5776 10.9375 23.2573C10.8359 18.7886 18.25 10.4604 26.1719 9.85107Z" fill="#D1D1D1"/>
<path d="M26.1719 18.3824C16.0156 25.5933 19.7735 28.1324 19.7735 28.1324C15.711 29.9605 15.711 25.1871 16.625 24.3746C19.1641 22.0386 24.4453 18.2808 26.1719 18.3824Z" fill="#D1D1D1"/>
<path d="M6.97656 23.8669C8.60156 22.6481 9.92188 21.1247 11.2422 19.6013C12.5625 18.0778 13.8828 16.5544 15.3047 15.031C16.7266 13.6091 18.3516 12.1872 20.1797 11.1716C22.0078 10.156 24.1406 9.64814 26.1719 9.85127C24.1406 10.0544 22.2109 10.7653 20.5859 11.8825C18.9609 12.9997 17.4375 14.32 16.0156 15.7419C14.5937 17.1638 13.2734 18.6872 11.75 20.1091C10.3281 21.6325 8.80469 22.9528 6.97656 23.8669" fill="#8D9998"/>
</g>
<defs>
<filter id="filter0_d" x="-2" y="0" width="73" height="73" filterUnits="userSpaceOnUse" color-interpolation-filters="sRGB">
<feFlood flood-opacity="0" result="BackgroundImageFix"/>
<feColorMatrix in="SourceAlpha" type="matrix" values="0 0 0 0 0 0 0 0 0 0 0 0 0 0 0 0 0 0 127 0"/>
<feOffset dy="4"/>
<feGaussianBlur stdDeviation="2"/>
<feColorMatrix type="matrix" values="0 0 0 0 0 0 0 0 0 0 0 0 0 0 0 0 0 0 0.25 0"/>
<feBlend mode="normal" in2="BackgroundImageFix" result="effect1_dropShadow"/>
<feBlend mode="normal" in="SourceGraphic" in2="effect1_dropShadow" result="shape"/>
</filter>
</defs>
</svg>
