<svg width="663" height="481" viewBox="0 0 663 481" fill="none" xmlns="http://www.w3.org/2000/svg">
<path d="M422.497 360.591V476.54H132.257C99.1884 476.54 72.2832 450.532 72.2832 418.566C72.2832 386.599 99.1883 360.591 132.257 360.591H422.497Z" fill="#F2F2F2"/>
<path d="M429.626 475.648C429.625 476.831 429.156 477.965 428.32 478.801C427.485 479.638 426.352 480.108 425.17 480.108H127.088C110.898 480.108 95.3718 473.671 83.9242 462.213C72.4765 450.756 66.0453 435.215 66.0453 419.012C66.0453 402.808 72.4765 387.268 83.9242 375.81C95.3718 364.352 110.898 357.915 127.088 357.915H425.17C426.352 357.915 427.485 358.385 428.321 359.221C429.156 360.058 429.626 361.192 429.626 362.375C429.626 363.557 429.156 364.692 428.321 365.528C427.485 366.364 426.352 366.834 425.17 366.834H127.088C113.262 366.834 100.002 372.331 90.2254 382.117C80.4489 391.902 74.9566 405.173 74.9566 419.012C74.9566 432.85 80.4489 446.121 90.2254 455.906C100.002 465.692 113.262 471.189 127.088 471.189H425.17C426.352 471.189 427.485 471.659 428.32 472.496C429.156 473.332 429.625 474.466 429.626 475.648Z" fill="#D80032"/>
<path d="M422.497 387.348H110.602C110.365 387.348 110.139 387.254 109.972 387.087C109.805 386.92 109.711 386.693 109.711 386.456C109.711 386.22 109.805 385.993 109.972 385.826C110.139 385.658 110.365 385.564 110.602 385.564H422.497C422.733 385.564 422.96 385.658 423.127 385.826C423.294 385.993 423.388 386.22 423.388 386.456C423.388 386.693 423.294 386.92 423.127 387.087C422.96 387.254 422.733 387.348 422.497 387.348Z" fill="#8D99AE"/>
<path d="M422.497 408.755H110.602C110.365 408.755 110.139 408.661 109.972 408.493C109.805 408.326 109.711 408.099 109.711 407.863C109.711 407.626 109.805 407.399 109.972 407.232C110.139 407.065 110.365 406.971 110.602 406.971H422.497C422.733 406.971 422.96 407.065 423.127 407.232C423.294 407.399 423.388 407.626 423.388 407.863C423.388 408.099 423.294 408.326 423.127 408.493C422.96 408.661 422.733 408.755 422.497 408.755Z" fill="#8D99AE"/>
<path d="M422.497 430.161H110.602C110.365 430.161 110.139 430.067 109.972 429.899C109.805 429.732 109.711 429.505 109.711 429.269C109.711 429.032 109.805 428.805 109.972 428.638C110.139 428.471 110.365 428.377 110.602 428.377H422.497C422.733 428.377 422.96 428.471 423.127 428.638C423.294 428.805 423.388 429.032 423.388 429.269C423.388 429.505 423.294 429.732 423.127 429.899C422.96 430.067 422.733 430.161 422.497 430.161Z" fill="#8D99AE"/>
<path d="M422.497 451.567H110.602C110.365 451.567 110.139 451.473 109.972 451.305C109.805 451.138 109.711 450.911 109.711 450.675C109.711 450.438 109.805 450.211 109.972 450.044C110.139 449.877 110.365 449.783 110.602 449.783H422.497C422.733 449.783 422.96 449.877 423.127 450.044C423.294 450.211 423.388 450.438 423.388 450.675C423.388 450.911 423.294 451.138 423.127 451.305C422.96 451.473 422.733 451.567 422.497 451.567Z" fill="#8D99AE"/>
<path d="M646.81 382.417L574.125 472.705L348.121 290.44C322.371 269.674 317.724 232.526 337.763 207.634C357.801 182.742 395.056 179.386 420.806 200.153L646.81 382.417Z" fill="#F2F2F2"/>
<path d="M580.235 476.487C579.494 477.408 578.417 477.996 577.242 478.122C576.067 478.249 574.891 477.903 573.97 477.161L341.859 289.972C329.253 279.806 321.198 265.043 319.466 248.932C317.735 232.821 322.468 216.682 332.626 204.064C342.783 191.447 357.533 183.385 373.629 181.651C389.726 179.918 405.851 184.656 418.458 194.823L650.569 382.012C651.025 382.38 651.404 382.833 651.685 383.347C651.965 383.861 652.142 384.426 652.205 385.008C652.268 385.591 652.215 386.18 652.051 386.742C651.886 387.304 651.612 387.828 651.245 388.285C650.877 388.741 650.424 389.12 649.91 389.401C649.396 389.681 648.832 389.858 648.25 389.921C647.668 389.983 647.08 389.93 646.518 389.765C645.957 389.6 645.433 389.325 644.978 388.957L412.866 201.768C407.536 197.466 401.411 194.257 394.841 192.324C388.271 190.392 381.385 189.774 374.577 190.506C367.768 191.237 361.17 193.304 355.16 196.589C349.15 199.873 343.845 204.311 339.549 209.648C335.253 214.984 332.049 221.116 330.121 227.693C328.192 234.269 327.578 241.161 328.311 247.976C329.045 254.79 331.113 261.393 334.397 267.407C337.681 273.421 342.116 278.729 347.45 283.027L579.561 470.216C580.481 470.959 581.069 472.036 581.195 473.212C581.321 474.388 580.976 475.566 580.235 476.487Z" fill="#8D99AE"/>
<path d="M630.036 403.252L387.17 207.389C387.078 207.316 387.003 207.225 386.947 207.122C386.891 207.019 386.855 206.906 386.843 206.79C386.83 206.674 386.841 206.556 386.874 206.443C386.907 206.331 386.961 206.226 387.035 206.135C387.108 206.044 387.199 205.968 387.302 205.912C387.404 205.856 387.517 205.82 387.633 205.808C387.75 205.795 387.867 205.806 387.98 205.839C388.092 205.872 388.197 205.927 388.288 206L631.154 401.863C631.246 401.937 631.322 402.028 631.378 402.13C631.434 402.233 631.47 402.346 631.482 402.463C631.495 402.579 631.484 402.697 631.451 402.81C631.418 402.922 631.364 403.027 631.29 403.118C631.217 403.21 631.126 403.285 631.023 403.342C630.92 403.398 630.807 403.433 630.691 403.446C630.575 403.458 630.457 403.447 630.344 403.414C630.232 403.381 630.127 403.326 630.036 403.253V403.252Z" fill="#8D99AE"/>
<path d="M616.617 419.921L373.751 224.058C373.567 223.909 373.45 223.694 373.425 223.459C373.4 223.224 373.469 222.988 373.617 222.804C373.765 222.62 373.98 222.503 374.215 222.477C374.45 222.452 374.685 222.521 374.869 222.669L617.736 418.532C617.827 418.605 617.903 418.696 617.959 418.799C618.015 418.902 618.051 419.015 618.063 419.131C618.076 419.248 618.066 419.366 618.033 419.478C618 419.591 617.945 419.695 617.871 419.787C617.798 419.878 617.707 419.954 617.604 420.01C617.502 420.066 617.389 420.102 617.272 420.114C617.156 420.126 617.038 420.116 616.926 420.083C616.813 420.05 616.709 419.995 616.617 419.921Z" fill="#8D99AE"/>
<path d="M603.199 436.589L360.332 240.726C360.148 240.578 360.031 240.362 360.005 240.127C359.98 239.892 360.049 239.656 360.197 239.472C360.346 239.288 360.561 239.17 360.796 239.145C361.031 239.119 361.266 239.189 361.45 239.337L604.317 435.2C604.408 435.274 604.484 435.365 604.54 435.467C604.596 435.57 604.631 435.683 604.644 435.799C604.656 435.916 604.646 436.034 604.613 436.146C604.58 436.258 604.525 436.363 604.452 436.454C604.378 436.546 604.288 436.622 604.185 436.678C604.082 436.734 603.97 436.769 603.853 436.782C603.737 436.794 603.619 436.784 603.507 436.751C603.395 436.718 603.29 436.663 603.199 436.589V436.589Z" fill="#8D99AE"/>
<path d="M589.78 453.258L346.913 257.395C346.822 257.321 346.747 257.231 346.69 257.128C346.634 257.025 346.599 256.912 346.587 256.796C346.574 256.679 346.585 256.561 346.618 256.449C346.651 256.337 346.705 256.232 346.779 256.141C346.852 256.049 346.943 255.974 347.046 255.917C347.148 255.861 347.261 255.826 347.377 255.813C347.494 255.801 347.611 255.811 347.724 255.844C347.836 255.877 347.941 255.932 348.032 256.006L590.898 451.869C590.99 451.942 591.065 452.033 591.122 452.136C591.178 452.239 591.213 452.352 591.226 452.468C591.239 452.585 591.228 452.703 591.195 452.815C591.162 452.928 591.107 453.033 591.034 453.124C590.96 453.215 590.87 453.291 590.767 453.347C590.664 453.403 590.551 453.439 590.435 453.451C590.318 453.464 590.201 453.453 590.088 453.42C589.976 453.387 589.871 453.332 589.78 453.258Z" fill="#8D99AE"/>
<path d="M662.109 481H0.891129C0.654787 481 0.428124 480.906 0.261005 480.739C0.0938859 480.571 0 480.345 0 480.108C0 479.871 0.0938859 479.645 0.261005 479.477C0.428124 479.31 0.654787 479.216 0.891129 479.216H662.109C662.345 479.216 662.572 479.31 662.739 479.477C662.906 479.645 663 479.871 663 480.108C663 480.345 662.906 480.571 662.739 480.739C662.572 480.906 662.345 481 662.109 481Z" fill="#8D99AE"/>
<path d="M301.274 348.404L291.086 348.403L286.241 309.073L301.277 309.075L301.274 348.404Z" fill="#FFB8B8"/>
<path d="M283.809 345.489H303.456V357.871H271.438C271.438 356.245 271.758 354.635 272.38 353.133C273.002 351.63 273.913 350.265 275.062 349.116C276.21 347.966 277.574 347.054 279.075 346.432C280.576 345.81 282.184 345.489 283.809 345.489Z" fill="#2B2D42"/>
<path d="M197.194 348.404L187.007 348.403L182.162 309.073L197.198 309.075L197.194 348.404Z" fill="#FFB8B8"/>
<path d="M179.73 345.489H199.377V357.871H167.359C167.359 356.245 167.679 354.635 168.301 353.133C168.923 351.63 169.834 350.265 170.983 349.116C172.131 347.966 173.495 347.054 174.996 346.432C176.497 345.81 178.105 345.489 179.73 345.489Z" fill="#2B2D42"/>
<path d="M231.222 56.6665V52.2068C231.222 44.578 234.25 37.2617 239.639 31.8673C245.029 26.4729 252.339 23.4424 259.961 23.4424H259.961C267.583 23.4424 274.893 26.4729 280.282 31.8673C285.672 37.2617 288.7 44.578 288.7 52.2068V56.6665C288.7 62.1663 286.517 67.4409 282.631 71.3298C278.746 75.2188 273.476 77.4036 267.981 77.4036H251.941C249.22 77.4036 246.526 76.8672 244.012 75.8251C241.498 74.783 239.214 73.2555 237.29 71.3298C235.366 69.4042 233.84 67.1182 232.799 64.6022C231.758 62.0863 231.222 59.3897 231.222 56.6665Z" fill="#2B2D42"/>
<path d="M259.961 78.9381C272.049 78.9381 281.848 69.1302 281.848 57.0316C281.848 44.933 272.049 35.1251 259.961 35.1251C247.873 35.1251 238.074 44.933 238.074 57.0316C238.074 69.1302 247.873 78.9381 259.961 78.9381Z" fill="#FFB8B8"/>
<path d="M140.909 132.321C141.798 131.482 142.859 130.848 144.019 130.463C145.178 130.079 146.408 129.953 147.621 130.096C148.834 130.239 150.002 130.646 151.041 131.289C152.08 131.932 152.965 132.795 153.635 133.818L172.397 130.265L177.335 141.151L150.768 145.795C148.978 146.807 146.878 147.126 144.867 146.692C142.857 146.259 141.075 145.102 139.86 143.441C138.645 141.78 138.08 139.731 138.274 137.682C138.467 135.632 139.405 133.725 140.909 132.321V132.321Z" fill="#FFB8B8"/>
<path d="M242.897 92.7339L243.143 93.106L212.376 113.392L160.46 129.985C159.772 130.206 159.182 130.659 158.79 131.267C158.398 131.875 158.229 132.6 158.311 133.319L159.443 143.083C159.493 143.515 159.633 143.932 159.854 144.306C160.075 144.681 160.371 145.006 160.724 145.259C161.077 145.513 161.48 145.69 161.905 145.778C162.331 145.867 162.77 145.866 163.195 145.775L212.055 135.292C214.42 134.788 216.656 133.803 218.624 132.398L253.189 107.783C254.442 106.886 255.442 105.68 256.092 104.281C256.741 102.883 257.018 101.34 256.895 99.8029C256.768 98.2637 256.243 96.7839 255.372 95.5093C254.5 94.2347 253.312 93.2091 251.925 92.5334C250.537 91.8577 248.998 91.5551 247.458 91.6555C245.918 91.7559 244.431 92.2558 243.143 93.106L242.897 92.7339Z" fill="#8D99AE"/>
<path d="M291.268 337.243C290.486 337.243 289.721 337.015 289.067 336.587C288.412 336.16 287.896 335.55 287.581 334.834L240.877 219.329C240.768 219.079 240.585 218.867 240.353 218.724C240.12 218.581 239.849 218.512 239.577 218.528C239.304 218.543 239.043 218.642 238.828 218.81C238.613 218.979 238.455 219.209 238.374 219.47L200.271 331.918C200.11 332.441 199.844 332.926 199.489 333.343C199.134 333.759 198.698 334.099 198.207 334.34C197.716 334.582 197.181 334.72 196.635 334.747C196.088 334.774 195.542 334.689 195.03 334.496L182.253 329.701C181.559 329.443 180.951 328.997 180.495 328.414C180.039 327.831 179.754 327.132 179.671 326.396C173.923 276.277 224.049 149.77 224.556 148.498L224.697 148.146L270.391 158.263L270.486 158.366C288.717 178.272 303.702 303.822 306.521 328.789C306.626 329.691 306.421 330.601 305.939 331.371C305.458 332.14 304.729 332.723 303.873 333.022L292.595 337.015C292.169 337.166 291.72 337.243 291.268 337.243Z" fill="#2B2D42"/>
<path d="M251.898 162.335C240.827 162.335 228.484 160.125 224.685 151.007L224.597 150.797L224.715 150.603C227.714 145.678 231.678 137.277 229.547 135.7C225.351 132.595 223.314 127.486 223.495 120.515C223.888 105.383 234.189 91.9477 249.129 87.0836H249.129C253.3 85.7478 257.543 84.6542 261.84 83.8081C264.972 83.1756 268.205 83.2451 271.307 84.0118C274.409 84.7785 277.302 86.2233 279.78 88.2424C282.289 90.2748 284.317 92.8381 285.719 95.7482C287.12 98.6584 287.86 101.843 287.886 105.074C288.043 121.245 285.555 143.768 272.815 159.231C272.218 159.949 271.387 160.432 270.469 160.597C264.339 161.707 258.126 162.288 251.898 162.335Z" fill="#8D99AE"/>
<path d="M247.779 161.729C248.382 159.566 249.813 157.728 251.762 156.615C253.71 155.502 256.019 155.204 258.186 155.785C258.629 155.909 259.06 156.069 259.477 156.264L273.723 143.287L283.63 149.968L263.258 168.012C262.338 169.672 260.889 170.977 259.143 171.718C257.397 172.459 255.454 172.595 253.622 172.103C252.554 171.811 251.556 171.31 250.683 170.629C249.811 169.948 249.082 169.1 248.539 168.136C247.995 167.171 247.649 166.108 247.518 165.009C247.388 163.909 247.477 162.794 247.779 161.729Z" fill="#FFB8B8"/>
<path d="M271.466 161.894C270.542 161.894 269.646 161.574 268.931 160.988L263.312 156.393C262.844 156.01 262.469 155.526 262.214 154.977C261.959 154.428 261.831 153.829 261.84 153.224C261.85 152.618 261.996 152.023 262.268 151.482C262.539 150.941 262.93 150.469 263.41 150.101L286.973 132.013C287.252 131.797 287.435 131.48 287.482 131.131C287.53 130.781 287.437 130.426 287.225 130.144L272.682 110.9C270.992 108.672 270.145 105.917 270.289 103.123C270.434 100.33 271.562 97.6772 273.473 95.6357C275.485 93.4602 278.241 92.1214 281.194 91.885C284.147 91.6487 287.08 92.5319 289.413 94.3596L289.505 94.4568L304.691 116.222C306.334 117.51 307.656 119.162 308.555 121.047C309.454 122.931 309.906 124.999 309.875 127.087C309.844 129.176 309.331 131.229 308.376 133.086C307.421 134.943 306.05 136.554 304.371 137.793L273.853 161.107C273.162 161.618 272.326 161.894 271.466 161.894Z" fill="#8D99AE"/>
<path d="M240.574 50.8689V39.9999L259.961 31.5266L278.447 39.9999V50.8689C278.447 51.342 278.259 51.7958 277.925 52.1303C277.591 52.4648 277.137 52.6528 276.665 52.6528H242.356C241.883 52.6528 241.43 52.4648 241.096 52.1303C240.762 51.7958 240.574 51.342 240.574 50.8689Z" fill="#2B2D42"/>
<path d="M259.071 24.8842C256.22 15.7523 262.207 5.28666 271.057 1.672C279.908 -1.94266 290.496 0.584102 297.964 6.55606C305.432 12.528 310.065 21.4729 312.52 30.7192C314.975 39.9656 315.441 49.6073 315.894 59.1638C326.768 61.1629 334.165 74.0716 330.398 84.475C326.631 94.8784 312.689 100.047 303.06 94.6092C293.431 89.1717 290.643 74.5548 297.592 65.9485C300.88 61.8763 302.717 56.8224 302.811 51.5873C302.906 46.3523 301.253 41.2353 298.114 37.0468C294.974 32.8583 290.529 29.8378 285.481 28.4637C280.433 27.0895 275.071 27.4403 270.245 29.4603C264.886 31.7035 258.162 25.8754 259.071 24.8842Z" fill="#2B2D42"/>
<path d="M136.89 90.1578C123.871 90.0723 111.015 87.2541 99.1524 81.8853C98.4462 81.5704 97.8469 81.0566 97.4273 80.4067C97.0077 79.7567 96.786 78.9987 96.7892 78.2249V45.743C96.7904 44.6789 97.2133 43.6587 97.9651 42.9062C98.7169 42.1538 99.7361 41.7306 100.799 41.7294H172.981C174.044 41.7306 175.063 42.1538 175.815 42.9063C176.567 43.6587 176.99 44.6789 176.991 45.743V78.225C176.994 78.9988 176.772 79.7568 176.353 80.4067C175.933 81.0566 175.334 81.5704 174.628 81.8854C162.765 87.2541 149.909 90.0723 136.89 90.1578Z" fill="#D80032"/>
<path d="M136.88 63.8436C136.345 63.844 135.815 63.7374 135.322 63.53L78.0829 39.3593C77.3448 39.0476 76.7168 38.5218 76.28 37.8496C75.8433 37.1774 75.6177 36.3897 75.6323 35.588C75.647 34.7863 75.9013 34.0074 76.3624 33.3517C76.8235 32.6959 77.4703 32.1935 78.2193 31.9091L135.459 10.175C136.381 9.82336 137.4 9.82553 138.321 10.1811L194.793 31.9151C195.538 32.2018 196.181 32.7044 196.638 33.3586C197.096 34.0127 197.349 34.7887 197.363 35.5872C197.378 36.3858 197.155 37.1706 196.721 37.8412C196.288 38.5119 195.664 39.0379 194.931 39.3519L138.457 63.5222C137.959 63.7347 137.422 63.844 136.88 63.8436Z" fill="#D80032"/>
<path d="M103.473 84.0955C106.426 84.0955 108.819 81.6995 108.819 78.744C108.819 75.7884 106.426 73.3925 103.473 73.3925C100.52 73.3925 98.1259 75.7884 98.1259 78.744C98.1259 81.6995 100.52 84.0955 103.473 84.0955Z" fill="#3F3D56"/>
<path opacity="0.2" d="M195.126 35.921L138.652 60.0913C138.212 60.2797 137.738 60.3774 137.259 60.3786C136.781 60.3797 136.307 60.2843 135.865 60.098L78.6264 35.928C77.9075 35.6317 77.3078 35.1042 76.922 34.4286C76.6696 34.8667 76.5132 35.3535 76.4632 35.8566C76.4132 36.3598 76.4707 36.8679 76.6319 37.3471C76.7931 37.8263 77.0543 38.2658 77.3981 38.6362C77.742 39.0067 78.1607 39.2996 78.6264 39.4957L135.865 63.6657C136.307 63.852 136.781 63.9474 137.259 63.9462C137.738 63.9451 138.212 63.8474 138.652 63.6589L195.126 39.4886C195.589 39.2908 196.005 38.9969 196.347 38.6263C196.688 38.2557 196.947 37.8168 197.107 37.3386C197.266 36.8604 197.323 36.3538 197.272 35.8522C197.222 35.3505 197.066 34.8653 196.814 34.4286C196.431 35.0987 195.838 35.6233 195.126 35.921Z" fill="black"/>
<path d="M103.922 78.723C104.158 78.723 104.385 78.6291 104.552 78.4618C104.719 78.2946 104.813 78.0677 104.813 77.8311V47.9862L134.204 37.2697C134.44 37.2732 134.668 37.1826 134.838 37.0178C135.007 36.8531 135.104 36.6276 135.108 36.391C135.112 36.1545 135.021 35.9262 134.856 35.7565C134.692 35.5867 134.466 35.4894 134.23 35.4858L104.84 46.2024C104.603 46.1969 104.368 46.2396 104.148 46.3278C103.929 46.416 103.729 46.5478 103.562 46.7154C103.393 46.881 103.259 47.0787 103.168 47.297C103.077 47.5152 103.03 47.7496 103.031 47.9862V77.8311C103.031 78.0677 103.125 78.2945 103.292 78.4618C103.459 78.6291 103.686 78.723 103.922 78.723Z" fill="#3F3D56"/>
</svg>
