<svg width="445" height="355" viewBox="0 0 445 355" fill="none" xmlns="http://www.w3.org/2000/svg">
<g clip-path="url(#clip0)" filter="url(#filter0_d)">
<path opacity="0.1" d="M260.285 58.6411C232.634 57.681 206.295 48.7666 181.147 39.0115C156 29.2565 131.092 18.4474 104.103 13.2797C86.7439 9.95547 66.89 9.48607 52.9063 18.7803C39.4439 27.7416 35.0946 43.1679 32.7576 57.4975C30.9974 68.2767 29.9635 79.6192 34.787 89.7114C38.1323 96.7183 44.0753 102.607 48.181 109.341C62.4808 132.692 52.3766 161.487 36.8805 184.288C29.6174 194.986 21.1794 205.197 15.5739 216.574C9.96854 227.951 7.37091 241.004 12.2756 252.62C17.1419 264.142 28.733 272.779 41.2854 278.86C66.7874 291.213 96.8268 294.747 126.14 296.748C191.008 301.182 256.218 299.262 321.257 297.341C345.328 296.629 369.501 295.907 393.179 292.191C406.329 290.125 419.903 286.852 429.452 278.941C441.568 268.9 444.572 251.894 436.454 239.306C422.829 218.187 385.185 212.943 375.649 190.275C370.411 177.801 375.794 163.907 383.408 152.334C399.745 127.515 427.127 105.739 428.571 77.3703C429.563 57.8816 416.395 38.3714 396.041 29.1498C374.709 19.4502 345.118 20.6792 329.387 36.6773C313.178 53.1619 284.698 59.4861 260.285 58.6411Z" fill="white"/>
<path d="M190.042 294.658L43.8061 293.945L29.2756 259.905L80.6557 256.179L71.7007 218.857L173.324 205.701L76.0116 171.913L84.6077 169.873L241.085 195.37L232.468 253.615L220.15 285.624L190.042 294.658Z" fill="#D5D6DB"/>
<path d="M46.0492 279.688C46.0492 279.688 55.0213 278.254 60.4045 284.587C60.4045 284.587 56.4568 287.693 47.9632 283.392L46.0492 279.688Z" fill="#D5D6DB"/>
<path d="M45.1092 279.547C45.1092 279.547 39.3842 286.584 42.204 294.418C42.204 294.418 46.8695 292.554 47.3779 283.055L45.1092 279.547Z" fill="#D5D6DB"/>
<path d="M39.9652 267.978C39.9652 267.978 43.554 261.402 57.9094 270.607C57.9094 270.607 55.9953 275.027 49.6551 274.669C43.3148 274.311 41.64 271.443 39.9652 267.978Z" fill="#D5D6DB"/>
<path d="M39.0381 267.504C39.0381 267.504 31.5913 266.651 30.8693 283.677C30.8693 283.677 35.5903 284.654 38.9441 279.269C42.298 273.884 40.9223 270.863 39.0381 267.504Z" fill="#D5D6DB"/>
<path d="M34.7017 253.922C34.7017 253.922 38.8886 242.332 54.0813 250.576C54.0813 250.576 50.6121 261.21 36.2568 257.865L34.7017 253.922Z" fill="#EF233C"/>
<path d="M30.0361 236.596C30.0361 236.596 37.9316 224.887 51.928 235.743C51.928 235.743 47.0233 246.736 31.2324 240.761L30.0361 236.596Z" fill="#EF233C"/>
<path d="M28.3613 220.107C28.3613 220.107 37.5727 209.35 51.4324 220.107C51.4324 220.107 42.6996 229.547 28.3613 222.856V220.107Z" fill="#EF233C"/>
<path d="M26.9258 204.093C26.9258 204.093 36.2567 192.861 49.5354 203.495C49.5354 203.495 39.0082 213.412 26.9258 206.721V204.093Z" fill="#EF233C"/>
<path d="M27.7632 189.874C27.7632 189.874 37.5897 175.416 50.0139 185.214C50.0139 185.214 39.4867 197.64 27.7632 192.622V189.874Z" fill="#EF233C"/>
<path d="M30.0361 173.265C30.0361 173.265 40.4437 158.927 52.5261 169.92C52.5261 169.92 40.2045 182.346 30.0361 175.894V173.265Z" fill="#EF233C"/>
<path d="M33.5054 158.42C33.5054 158.42 45.827 144.943 56.5764 150.312C56.5764 150.312 43.7378 164.624 32.967 161.996L33.5054 158.42Z" fill="#EF233C"/>
<path d="M37.8119 144.346C37.8119 144.346 52.0305 127.84 60.3019 133.353C60.3019 133.353 49.8259 146.155 36.8036 147.435L37.8119 144.346Z" fill="#EF233C"/>
<path d="M44.0283 128.024C44.0283 128.024 56.4739 114.548 65.5656 117.893C65.5656 117.893 54.9187 131.873 42.3578 132.231L44.0283 128.024Z" fill="#EF233C"/>
<path d="M49.655 112.755C49.655 112.755 63.4122 99.8507 69.3936 102.121C69.3936 102.121 59.4645 116.459 49.0569 115.623L49.655 112.755Z" fill="#EF233C"/>
<path d="M55.158 98.6556C55.158 98.6556 67.0011 83.2379 73.4653 84.4327C73.4653 84.4327 66.2833 98.1777 55.158 100.222V98.6556Z" fill="#EF233C"/>
<path d="M61.1307 79.6451C61.1307 79.6451 71.5982 67.8289 77.2548 67.8545C77.2548 67.8545 68.992 83.6436 60.6992 83.4985L61.1307 79.6451Z" fill="#EF233C"/>
<path d="M64.6683 66.9883L74.7811 42.3745C74.7811 42.3745 75.2853 64.6242 63.3823 71.5543L64.6683 66.9883Z" fill="#EF233C"/>
<path d="M68.7742 39.8436C68.7742 39.8436 70.449 19.288 69.3723 17.6152C69.3723 17.6152 76.6012 34.7058 68.7058 48.9244L68.7742 39.8436Z" fill="#EF233C"/>
<path d="M34.3085 253.649C34.3085 253.649 23.824 247.158 17.0352 263.037C17.0352 263.037 26.3661 269.224 35.5433 257.698L34.3085 253.649Z" fill="#EF233C"/>
<path d="M29.6985 235.935C29.6985 235.935 16.8386 230.076 10.6008 246.654C10.6008 246.654 20.5342 253.482 30.8692 240.125L29.6985 235.935Z" fill="#EF233C"/>
<path d="M27.7632 221.093C27.7632 221.093 18.5519 210.335 4.69214 221.093C4.69214 221.093 13.425 230.533 27.7632 223.841V221.093Z" fill="#EF233C"/>
<path d="M26.6096 204.093C26.6096 204.093 17.2787 192.861 4 203.495C4 203.495 14.5272 213.412 26.6096 206.721V204.093Z" fill="#EF233C"/>
<path d="M27.7632 190.283C27.7632 190.283 21.2179 174.089 6.99072 181.053C6.99072 181.053 14.6811 195.413 27.1822 192.972L27.7632 190.283Z" fill="#EF233C"/>
<path d="M30.8608 173.184C30.8608 173.184 24.3539 156.708 9.9259 164.347C9.9259 164.347 18.7613 179.449 30.2199 175.727L30.8608 173.184Z" fill="#EF233C"/>
<path d="M34.8939 158.5C34.8939 158.5 32.3304 140.437 20.3677 138.819C20.3677 138.819 22.9055 157.869 33.2832 161.756L34.8939 158.5Z" fill="#EF233C"/>
<path d="M38.1152 144.38C38.1152 144.38 37.1155 122.617 27.2249 121.857C27.2249 121.857 27.5581 138.376 37.0001 147.461L38.1152 144.38Z" fill="#EF233C"/>
<path d="M45.0537 127.413C45.0537 127.413 42.1057 109.315 32.6637 107.105C32.6637 107.105 33.8343 124.631 44.118 131.855L45.0537 127.413Z" fill="#EF233C"/>
<path d="M50.7744 112.904C50.7744 112.904 50.6761 94.0512 44.9084 91.2817C44.9084 91.2817 41.3323 108.351 49.1039 115.311L50.7744 112.904Z" fill="#EF233C"/>
<path d="M55.5979 98.4422C55.5979 98.4422 54.7904 79.0303 48.8176 76.2949C48.8176 76.2949 46.7754 91.6572 54.705 99.7139L55.5979 98.4422Z" fill="#EF233C"/>
<path d="M61.9638 81.1942C61.9638 81.1942 61.9297 65.4052 57.6658 61.7012C57.6658 61.7012 53.4276 78.9966 59.7379 84.3691L61.9638 81.1942Z" fill="#EF233C"/>
<path d="M64.1684 66.2116L60.0199 39.9336C60.0199 39.9336 54.3846 61.4664 64.365 70.9569L64.1684 66.2116Z" fill="#EF233C"/>
<path d="M64.976 40.091C64.976 40.091 54.3291 22.4244 54.547 20.4614C54.547 20.4614 55.6792 38.9773 69.0732 48.1989L64.976 40.091Z" fill="#EF233C"/>
<path d="M66.2235 34.8725C66.2235 34.8725 56.1748 9.78075 51.6289 7.74951C51.6289 7.74951 65.9842 15.0381 67.0609 34.1556L66.2235 34.8725Z" fill="#EF233C"/>
<path d="M60.6479 83.6478L59.9601 83.4387C68.4408 55.8165 70.5557 38.2053 65.9201 33.7887L66.4114 33.2681C71.329 37.928 69.3338 55.3471 60.6479 83.6478Z" fill="#444053"/>
<path d="M37.2949 148.323L36.2781 147.96C37.1796 145.43 38.1494 142.861 39.1662 140.33C48.0187 118.294 55.5552 97.7939 60.3873 82.0561L61.2717 81.6294C56.4311 97.3971 49.027 118.682 40.166 140.749C39.1534 143.232 38.1878 145.788 37.2949 148.323Z" fill="#444053"/>
<path d="M58.6912 300.358C58.5545 300.209 44.8102 284.749 35.2271 258.355C29.612 242.903 26.4871 226.659 25.9688 210.229C25.3108 189.69 29.626 166.758 37.0173 145.925L37.8205 146.864C21.2264 193.62 27.8188 233.686 36.5644 257.813C46.0449 283.968 59.6354 299.258 59.7679 299.411L58.6912 300.358Z" fill="#444053"/>
<path d="M273.474 267.534C273.474 267.534 263.789 279.342 271.479 297.192L194.148 330.69L186.727 332.244L183.309 317.308L185.595 298.459V288.158L273.474 267.534Z" fill="#D5D6DB"/>
<path d="M29.2756 259.904L136.308 240.416L278.131 262.981L190.042 294.657L29.2756 259.904Z" fill="#D5D6DB"/>
<path d="M29.2756 259.904L136.308 240.416L278.131 262.981L190.042 294.657L29.2756 259.904Z" fill="#D5D6DB"/>
<path d="M29.2757 259.9C29.2757 259.9 19.2654 278.843 30.8009 296.339L189.521 330.691C189.521 330.691 179.669 315.602 190.03 294.658L29.2757 259.9Z" fill="#D5D6DB"/>
<path opacity="0.1" d="M29.2757 259.9C29.2757 259.9 19.2654 278.843 30.8009 296.339L189.521 330.691C189.521 330.691 179.669 315.602 190.03 294.658L29.2757 259.9Z" fill="black"/>
<path opacity="0.1" d="M34.0052 266.468C34.0052 266.468 28.2844 280.328 34.0052 289.298V266.468Z" fill="black"/>
<path d="M189.521 330.69L278.131 292.925C278.131 292.925 283.087 293.992 279.883 297.619C276.679 301.246 191.23 334.318 191.23 334.318L30.8009 296.339L189.521 330.69Z" fill="#D5D6DB"/>
<path opacity="0.1" d="M189.521 330.69L278.131 292.925C278.131 292.925 283.087 293.992 279.883 297.619C276.679 301.246 191.23 334.318 191.23 334.318L30.8009 296.339L189.521 330.69Z" fill="black"/>
<path opacity="0.1" d="M182.258 298.472C182.258 298.472 173.713 308.714 182.258 324.076V298.472Z" fill="black"/>
<path opacity="0.1" d="M223.627 298.299L185.299 311.071L185.435 311.476L223.762 298.704L223.627 298.299Z" fill="black"/>
<path opacity="0.1" d="M231.303 297.028L185.287 314.505L185.439 314.904L231.455 297.427L231.303 297.028Z" fill="black"/>
<path opacity="0.1" d="M238.354 296.967L185.544 318.557L185.706 318.952L238.516 297.362L238.354 296.967Z" fill="black"/>
<path opacity="0.1" d="M246.02 295.118L186.16 322.126L186.336 322.515L246.196 295.507L246.02 295.118Z" fill="black"/>
<path opacity="0.1" d="M252.461 295.127L186.634 323.865L186.805 324.256L252.632 295.518L252.461 295.127Z" fill="black"/>
<path opacity="0.1" d="M266.55 292.737L187.627 326.784L187.796 327.176L266.719 293.129L266.55 292.737Z" fill="black"/>
<path opacity="0.3" d="M69.0391 261.987L144.234 246.198L190.042 254.946L128.426 274.789L69.0391 261.987Z" fill="white"/>
<path d="M278.131 262.981C278.131 262.981 282.019 264.547 279.738 266.967C277.456 269.386 190.03 294.657 190.03 294.657L278.131 262.981Z" fill="#D5D6DB"/>
<path d="M315.895 226.491C315.895 226.491 306.214 238.295 313.904 256.149L236.573 289.647L229.152 291.209L225.734 276.274L228.054 257.429V247.115L315.895 226.491Z" fill="#D5D6DB"/>
<path d="M71.7007 218.857L178.729 199.373L320.556 221.938L232.467 253.614L71.7007 218.857Z" fill="#9D9CB5"/>
<path d="M71.6837 218.857C71.6837 218.857 61.6691 237.799 73.2046 255.295L231.925 289.647C231.925 289.647 222.077 274.545 232.45 253.61L71.6837 218.857Z" fill="#9D9CB5"/>
<path opacity="0.1" d="M71.6837 218.857C71.6837 218.857 61.6691 237.799 73.2046 255.295L231.925 289.647C231.925 289.647 222.077 274.545 232.45 253.61L182.258 242.758L71.6837 218.857Z" fill="black"/>
<path opacity="0.1" d="M76.426 225.425C76.426 225.425 70.7096 239.281 76.426 248.255V225.425Z" fill="black"/>
<path d="M231.942 289.647L320.556 251.882C320.556 251.882 325.508 252.949 322.304 256.576C319.099 260.203 233.651 293.275 233.651 293.275L73.2217 255.296L231.942 289.647Z" fill="#9D9CB5"/>
<path opacity="0.1" d="M231.942 289.647L320.556 251.882C320.556 251.882 325.508 252.949 322.304 256.576C319.099 260.203 233.651 293.275 233.651 293.275L73.2217 255.296L231.942 289.647Z" fill="black"/>
<path opacity="0.1" d="M224.679 257.429C224.679 257.429 216.134 267.671 224.679 283.033V257.429Z" fill="black"/>
<path opacity="0.1" d="M266.051 257.261L227.723 270.032L227.859 270.437L266.186 257.665L266.051 257.261Z" fill="black"/>
<path opacity="0.1" d="M273.733 255.987L227.717 273.465L227.869 273.864L273.885 256.386L273.733 255.987Z" fill="black"/>
<path opacity="0.1" d="M280.777 255.921L227.967 277.511L228.129 277.906L280.939 256.316L280.777 255.921Z" fill="black"/>
<path opacity="0.1" d="M288.449 254.073L228.589 281.081L228.764 281.469L288.624 254.461L288.449 254.073Z" fill="black"/>
<path opacity="0.1" d="M294.883 254.076L229.056 282.814L229.227 283.205L295.055 254.467L294.883 254.076Z" fill="black"/>
<path opacity="0.1" d="M308.975 251.686L230.052 285.733L230.222 286.125L309.144 252.078L308.975 251.686Z" fill="black"/>
<path opacity="0.45" d="M111.464 220.944L186.659 205.155L232.468 213.903L170.851 233.746L111.464 220.944Z" fill="white"/>
<path d="M320.556 221.938C320.556 221.938 324.44 223.505 322.163 225.92C319.885 228.335 232.468 253.61 232.468 253.61L320.556 221.938Z" fill="#9D9CB5"/>
<path d="M319.911 179.538C319.911 179.538 310.226 200.734 317.916 218.584L240.585 242.694L233.181 244.26L229.763 229.325L232.049 210.476V200.162L319.911 179.538Z" fill="#D5D6DB"/>
<path d="M75.7296 171.908L182.762 152.419L324.589 174.985L236.496 206.661L75.7296 171.908Z" fill="#D5D6DB"/>
<path d="M75.7297 171.904C75.7297 171.904 65.7023 190.846 77.2379 208.342L235.958 242.694C235.958 242.694 226.106 227.592 236.479 206.661L75.7297 171.904Z" fill="#D5D6DB"/>
<path opacity="0.1" d="M75.7297 171.904C75.7297 171.904 65.7023 190.846 77.2379 208.342L235.958 242.694C235.958 242.694 226.106 227.592 236.479 206.661L75.7297 171.904Z" fill="black"/>
<path opacity="0.1" d="M80.4592 178.471C80.4592 178.471 74.7384 192.331 80.4592 201.301V178.471Z" fill="black"/>
<path d="M235.975 242.695L324.585 214.317C324.585 214.317 329.541 215.384 326.337 219.011C323.133 222.638 237.684 246.322 237.684 246.322L77.2549 208.343L235.975 242.695Z" fill="#D5D6DB"/>
<path opacity="0.1" d="M235.975 242.695L324.585 214.317C324.585 214.317 329.541 215.384 326.337 219.011C323.133 222.638 237.684 246.322 237.684 246.322L77.2549 208.343L235.975 242.695Z" fill="black"/>
<path opacity="0.1" d="M228.712 210.476C228.712 210.476 220.167 220.718 228.712 236.08V210.476Z" fill="black"/>
<path opacity="0.1" d="M270.085 210.306L231.758 223.078L231.893 223.483L270.221 210.711L270.085 210.306Z" fill="black"/>
<path opacity="0.1" d="M277.764 209.036L231.748 226.513L231.9 226.912L277.916 209.435L277.764 209.036Z" fill="black"/>
<path opacity="0.1" d="M284.804 208.971L231.995 230.561L232.156 230.955L284.966 209.366L284.804 208.971Z" fill="black"/>
<path opacity="0.1" d="M292.482 207.119L232.622 234.127L232.798 234.516L292.658 207.508L292.482 207.119Z" fill="black"/>
<path opacity="0.1" d="M298.919 207.126L233.092 235.865L233.263 236.256L299.09 207.517L298.919 207.126Z" fill="black"/>
<path opacity="0.1" d="M313.009 204.739L234.086 238.786L234.256 239.178L313.179 205.131L313.009 204.739Z" fill="black"/>
<path opacity="0.3" d="M115.493 173.991L190.688 158.202L236.496 166.95L174.88 186.793L115.493 173.991Z" fill="white"/>
<path d="M324.585 174.985C324.585 174.985 328.473 176.551 326.192 178.971C323.91 181.39 236.496 206.661 236.496 206.661L324.585 174.985Z" fill="#D5D6DB"/>
<path d="M136.624 45.4468C136.624 45.4468 120.389 44.4696 122.286 55.8462C122.286 55.8462 121.906 57.8561 123.73 58.7693C123.73 58.7693 123.76 57.9158 125.397 58.2103C125.98 58.3105 126.574 58.3391 127.165 58.2956C127.962 58.2412 128.719 57.9297 129.323 57.408C129.323 57.408 133.89 55.5219 135.667 48.0626C135.667 48.0626 136.983 46.4368 136.949 46.0186L134.198 47.1878C134.198 47.1878 135.133 49.1636 134.399 50.8065C134.399 50.8065 134.309 47.2604 133.779 47.3415C133.672 47.3415 132.356 48.0285 132.356 48.0285C132.356 48.0285 133.967 51.4722 132.749 53.9729C132.749 53.9729 133.211 49.7312 131.852 48.276L129.921 49.4026C129.921 49.4026 131.805 52.9572 130.528 55.859C130.528 55.859 130.857 51.4082 129.515 49.6757L127.763 51.0412C127.763 51.0412 129.537 54.5447 128.456 56.9514C128.456 56.9514 128.315 51.7709 127.388 51.3783C127.388 51.3783 125.854 52.7268 125.623 53.2816C125.623 53.2816 126.836 55.8419 126.08 57.1691C126.08 57.1691 125.623 53.7168 125.226 53.6997C125.226 53.6997 123.7 55.987 123.542 57.5403C123.616 56.0922 124.068 54.6887 124.854 53.4693C123.975 53.6354 123.164 54.0553 122.521 54.677C122.521 54.677 122.756 53.0597 125.234 52.9188C125.234 52.9188 126.495 51.182 126.832 51.0796C126.832 51.0796 124.367 50.8705 122.876 51.532C122.876 51.532 124.192 50.0085 127.281 50.6785L128.99 49.2703C128.99 49.2703 125.751 48.8436 124.375 49.3172C124.375 49.3172 125.961 47.9688 129.455 48.9502L131.34 47.8279C131.34 47.8279 128.575 47.2348 126.93 47.4482C126.93 47.4482 128.665 46.5136 131.891 47.525L133.232 46.9233C133.232 46.9233 131.211 46.5264 130.617 46.4624C130.024 46.3984 129.994 46.2362 129.994 46.2362C131.276 46.0258 132.592 46.1735 133.796 46.663C133.796 46.663 136.68 45.626 136.624 45.4468Z" fill="#EF233C"/>
<path opacity="0.1" d="M365.028 92.208C365.028 92.208 348.793 91.2308 350.69 102.607C350.69 102.607 350.309 104.617 352.134 105.531C352.134 105.531 352.164 104.677 353.8 104.972C354.384 105.069 354.978 105.098 355.569 105.057C356.358 104.999 357.107 104.687 357.705 104.169C357.705 104.169 362.276 102.283 364.049 94.8239C364.049 94.8239 365.365 93.198 365.331 92.7798L362.588 93.9491C362.588 93.9491 363.524 95.9248 362.789 97.5677C362.789 97.5677 362.699 94.0216 362.174 94.1027C362.067 94.1027 360.747 94.7897 360.747 94.7897C360.747 94.7897 362.358 98.2335 361.144 100.734C361.144 100.734 361.606 96.4924 360.243 95.0372L358.312 96.1638C358.312 96.1638 360.196 99.7185 358.918 102.62C358.918 102.62 359.247 98.1694 357.906 96.4369L356.158 97.8024C356.158 97.8024 357.927 101.306 356.846 103.713C356.846 103.713 356.705 98.5322 355.778 98.1396C355.778 98.1396 354.249 99.488 354.014 100.043C354.014 100.043 355.227 102.603 354.475 103.93C354.475 103.93 354.014 100.478 353.62 100.461C353.62 100.461 352.095 102.748 351.937 104.302C352.011 102.853 352.465 101.449 353.253 100.231C352.373 100.397 351.561 100.817 350.916 101.438C350.916 101.438 351.155 99.8209 353.629 99.6801C353.629 99.6801 354.889 97.9433 355.227 97.8366C355.227 97.8366 352.766 97.6318 351.271 98.2932C351.271 98.2932 352.587 96.7698 355.676 97.4397L357.384 96.0315C357.384 96.0315 354.142 95.6048 352.77 96.0785C352.77 96.0785 354.351 94.73 357.85 95.7115L359.73 94.5892C359.73 94.5892 356.966 93.996 355.321 94.2094C355.321 94.2094 357.055 93.2748 360.281 94.2862L361.627 93.6845C361.627 93.6845 359.602 93.2876 359.008 93.2236C358.414 93.1596 358.384 92.9975 358.384 92.9975C359.667 92.7844 360.983 92.9321 362.187 93.4242C362.187 93.4242 365.079 92.3872 365.028 92.208Z" fill="#EF233C"/>
<path opacity="0.1" d="M163.968 115.729C163.968 115.729 156.893 101.08 147.886 108.3C147.886 108.3 145.943 108.949 146.037 110.984C146.037 110.984 146.784 110.596 147.318 112.166C147.518 112.721 147.782 113.251 148.104 113.745C148.541 114.415 149.185 114.924 149.937 115.196C149.937 115.196 153.812 118.26 161.199 116.169C161.199 116.169 163.263 116.523 163.6 116.276L161.242 114.453C161.242 114.453 159.96 116.233 158.174 116.391C158.174 116.391 161.233 114.586 160.905 114.168C160.836 114.082 159.623 113.259 159.623 113.259C159.623 113.259 157.397 116.344 154.62 116.502C154.62 116.502 158.55 114.837 159.157 112.939L157.235 111.803C157.235 111.803 155.043 115.183 151.885 115.482C151.885 115.482 155.936 113.6 156.794 111.586L154.752 110.732C154.752 110.732 152.552 113.984 149.92 114.219C149.92 114.219 154.381 111.569 154.269 110.566C154.269 110.566 152.343 109.892 151.744 109.956C151.744 109.956 150.112 112.256 148.574 112.256C148.574 112.256 151.364 110.169 151.193 109.832C151.193 109.832 148.45 109.619 147.006 110.259C148.308 109.613 149.756 109.318 151.206 109.405C150.631 108.72 149.867 108.217 149.01 107.959C149.01 107.959 150.54 107.378 151.868 109.465C151.868 109.465 154.005 109.717 154.257 109.96C154.257 109.96 153.236 107.715 151.932 106.738C151.932 106.738 153.906 107.135 154.808 110.152L156.88 110.971C156.88 110.971 155.688 107.933 154.59 106.973C154.59 106.973 156.538 107.694 157.388 111.24L159.285 112.333C159.285 112.333 158.461 109.631 157.469 108.304C157.469 108.304 159.131 109.363 159.819 112.665L161.003 113.544C161.003 113.544 160.362 111.586 160.148 111.04C159.935 110.493 160.041 110.382 160.041 110.382C160.854 111.396 161.369 112.614 161.528 113.903C161.528 113.903 163.814 115.857 163.968 115.729Z" fill="#EF233C"/>
<path opacity="0.1" d="M327.935 71.5116C327.935 71.5116 320.864 56.8619 311.853 64.0822C311.853 64.0822 309.914 64.7308 310.003 66.7663C310.003 66.7663 310.755 66.3823 311.285 67.9484C311.484 68.5058 311.75 69.0373 312.075 69.5315C312.511 70.1998 313.153 70.7077 313.904 70.9782C313.904 70.9782 317.783 74.0421 325.166 71.9554C325.166 71.9554 327.23 72.3053 327.572 72.0578L325.226 70.2314C325.226 70.2314 323.944 72.0151 322.163 72.173C322.163 72.173 325.217 70.3637 324.888 69.9455C324.82 69.8601 323.607 69.0365 323.607 69.0365C323.607 69.0365 321.385 72.1218 318.604 72.2797C318.604 72.2797 322.539 70.6154 323.145 68.7208L321.193 67.5942C321.193 67.5942 319.005 70.9696 315.844 71.2726C315.844 71.2726 319.894 69.3865 320.757 67.3723L318.711 66.5188C318.711 66.5188 316.51 69.7748 313.883 70.0052C313.883 70.0052 318.339 67.3552 318.228 66.3567C318.228 66.3567 316.305 65.6782 315.707 65.7464C315.707 65.7464 314.075 68.0422 312.533 68.0422C312.533 68.0422 315.327 65.9555 315.156 65.6184C315.156 65.6184 312.413 65.4051 310.965 66.0452C312.266 65.399 313.714 65.1047 315.164 65.1917C314.591 64.5059 313.829 64.0029 312.973 63.7451C312.973 63.7451 314.502 63.1647 315.831 65.2514C315.831 65.2514 317.967 65.5075 318.219 65.7507C318.219 65.7507 317.198 63.5018 315.891 62.5246C315.891 62.5246 317.865 62.9258 318.766 65.9598L320.842 66.7791C320.842 66.7791 319.65 63.7365 318.552 62.7764C318.552 62.7764 320.501 63.4976 321.347 67.0437L323.248 68.1361C323.248 68.1361 322.419 65.4392 321.428 64.1078C321.428 64.1078 323.094 65.1661 323.778 68.469L324.961 69.348C324.961 69.348 324.324 67.3894 324.107 66.8431C323.889 66.2969 324 66.1902 324 66.1902C324.81 67.2043 325.323 68.423 325.482 69.7108C325.482 69.7108 327.802 71.6481 327.935 71.5116Z" fill="#EF233C"/>
<path opacity="0.1" d="M350.532 143.974C350.532 143.974 343.461 129.32 334.437 136.541C334.437 136.541 332.498 137.189 332.587 139.225C332.587 139.225 333.339 138.841 333.869 140.407C334.067 140.964 334.331 141.496 334.655 141.99C335.091 142.658 335.733 143.166 336.484 143.437C336.484 143.437 340.363 146.505 347.75 144.414C347.75 144.414 349.81 144.768 350.151 144.516L347.793 142.694C347.793 142.694 346.511 144.478 344.725 144.636C344.725 144.636 347.78 142.826 347.451 142.408C347.383 142.323 346.169 141.499 346.169 141.499C346.169 141.499 343.948 144.585 341.166 144.747C341.166 144.747 345.101 143.078 345.708 141.184L343.781 140.048C343.781 140.048 341.594 143.428 338.432 143.727C338.432 143.727 342.482 141.841 343.345 139.827L341.299 138.973C341.299 138.973 339.099 142.225 336.471 142.46C336.471 142.46 340.931 139.81 340.82 138.807C340.82 138.807 338.893 138.128 338.295 138.196C338.295 138.196 336.663 140.492 335.121 140.492C335.121 140.492 337.915 138.406 337.744 138.068C337.744 138.068 335.001 137.855 333.553 138.495C334.856 137.849 336.305 137.555 337.757 137.642C337.183 136.955 336.419 136.452 335.561 136.195C335.561 136.195 337.091 135.61 338.419 137.701C338.419 137.701 340.555 137.953 340.808 138.196C340.808 138.196 339.786 135.952 338.483 134.97C338.483 134.97 340.457 135.372 341.359 138.406L343.431 139.225C343.431 139.225 342.239 136.182 341.141 135.226C341.141 135.226 343.089 135.943 343.935 139.494L345.836 140.582C345.836 140.582 345.007 137.885 344.016 136.554C344.016 136.554 345.682 137.612 346.37 140.919L347.554 141.772C347.554 141.772 346.913 139.814 346.699 139.268C346.486 138.721 346.592 138.615 346.592 138.615C347.405 139.628 347.918 140.847 348.075 142.135C348.075 142.135 350.399 144.102 350.532 143.974Z" fill="#EF233C"/>
<path opacity="0.1" d="M90.2815 334.625C95.7062 334.625 100.104 334.134 100.104 333.528C100.104 332.923 95.7062 332.432 90.2815 332.432C84.8568 332.432 80.4592 332.923 80.4592 333.528C80.4592 334.134 84.8568 334.625 90.2815 334.625Z" fill="#D5D6DB"/>
<path opacity="0.1" d="M25.8919 315.985C31.3166 315.985 35.7142 315.494 35.7142 314.889C35.7142 314.283 31.3166 313.792 25.8919 313.792C20.4672 313.792 16.0696 314.283 16.0696 314.889C16.0696 315.494 20.4672 315.985 25.8919 315.985Z" fill="#D5D6DB"/>
<path opacity="0.1" d="M139.363 347.004C144.788 347.004 149.185 346.513 149.185 345.908C149.185 345.302 144.788 344.811 139.363 344.811C133.938 344.811 129.541 345.302 129.541 345.908C129.541 346.513 133.938 347.004 139.363 347.004Z" fill="#D5D6DB"/>
<path opacity="0.1" d="M390.88 320.039C396.305 320.039 400.703 319.548 400.703 318.942C400.703 318.337 396.305 317.846 390.88 317.846C385.456 317.846 381.058 318.337 381.058 318.942C381.058 319.548 385.456 320.039 390.88 320.039Z" fill="#D5D6DB"/>
<path opacity="0.1" d="M309.145 314.718C314.569 314.718 318.967 314.227 318.967 313.621C318.967 313.015 314.569 312.524 309.145 312.524C303.72 312.524 299.322 313.015 299.322 313.621C299.322 314.227 303.72 314.718 309.145 314.718Z" fill="#D5D6DB"/>
<path opacity="0.1" d="M256.269 340.671C262.685 340.671 267.886 339.779 267.886 338.678C267.886 337.578 262.685 336.686 256.269 336.686C249.853 336.686 244.652 337.578 244.652 338.678C244.652 339.779 249.853 340.671 256.269 340.671Z" fill="#D5D6DB"/>
<path d="M261.452 318.648C261.452 318.648 245.276 326.995 253.633 336.827C253.633 336.827 254.419 338.96 256.692 338.811C256.692 338.811 256.239 337.983 257.974 337.322C258.591 337.083 259.178 336.772 259.721 336.396C260.456 335.888 261.005 335.156 261.285 334.309C261.285 334.309 264.592 329.888 262.028 321.708C262.028 321.708 262.362 319.395 262.071 319.019L260.106 321.712C260.106 321.712 262.135 323.073 262.37 325.074C262.37 325.074 260.234 321.716 259.807 322.087C259.713 322.164 258.833 323.56 258.833 323.56C258.833 323.56 262.353 325.945 262.614 329.043C262.614 329.043 260.631 324.703 258.491 324.084L257.265 326.269C257.265 326.269 261.11 328.608 261.537 332.124C261.537 332.124 259.303 327.665 257.021 326.764L256.12 329.073C256.12 329.073 259.828 331.429 260.17 334.356C260.17 334.356 257.068 329.461 255.953 329.615C255.953 329.615 255.252 331.783 255.346 332.453C255.346 332.453 257.965 334.202 258.012 335.922C258.012 335.922 255.594 332.871 255.222 333.071C255.222 333.071 255.069 336.14 255.812 337.736C255.812 337.736 254.53 335.457 254.74 333.071C253.99 333.733 253.451 334.6 253.189 335.564C253.189 335.564 252.492 333.878 254.787 332.325C254.787 332.325 255.005 329.939 255.269 329.645C255.269 329.645 252.787 330.857 251.732 332.342C251.732 332.342 252.121 330.127 255.487 329.026L256.342 326.688C256.342 326.688 252.975 328.113 251.937 329.367C251.937 329.367 252.685 327.17 256.607 326.116L257.769 323.982C257.769 323.982 254.778 324.989 253.317 326.116C253.317 326.116 254.449 324.225 258.128 323.355L259.072 322.011C259.072 322.011 256.902 322.783 256.295 323.06C255.688 323.338 255.569 323.201 255.569 323.201C256.677 322.264 258.025 321.653 259.461 321.434C259.461 321.434 261.601 318.793 261.452 318.648Z" fill="#EF233C"/>
<path d="M309.461 161.001C306.667 153.418 291.286 152.706 284.612 154.639C279.87 156.017 269.873 157.57 264.532 158.351L264.186 158.023C264.878 157.818 264.895 157.314 264.81 156.568C264.76 155.583 264.774 154.597 264.853 153.615C268.125 154.63 271.039 152.228 271.039 152.228C274.884 150.521 273.85 143.215 274.585 141.218C275.136 139.724 275.73 130.925 275.995 126.539H276.051L276.08 125.066C276.119 124.43 276.136 124.059 276.136 124.059C276.136 124.059 276.512 113.331 277.247 111.159C277.93 109.162 278.486 99.0998 278.571 97.5038C278.571 97.3672 278.571 97.2947 278.571 97.2947L278.516 96.3644C278.554 95.6859 278.571 94.9306 278.567 94.1369C278.567 90.4883 278.187 85.8925 278.14 85.15C278.14 85.0433 278.14 84.9153 278.14 84.7616C278.17 83.2041 277.973 75.4034 271.329 72.4547C268.881 71.3623 265.938 70.0608 263.088 68.7934C262.353 62.4564 260.674 56.1536 260.819 49.7697C260.819 48.8096 260.905 47.8495 260.999 46.8936C260.999 47.171 260.969 47.4526 260.965 47.747C260.965 48.3658 260.965 48.9888 260.965 49.6076C261.217 41.6235 264.237 33.5967 263.955 25.7832C263.93 26.5471 263.874 27.3152 263.801 28.0833C263.949 25.4405 263.672 22.7911 262.981 20.2357C262.725 19.3353 262.379 18.4051 261.64 17.8034C260.941 17.3188 260.14 17.0019 259.298 16.8774C257.277 16.3605 255.223 15.9785 253.15 15.7337C252.835 14.7709 252.368 13.8647 251.766 13.0496C247.434 7.10953 241.017 1.5279 233.429 0.247706C229.622 -0.39239 225.243 0.141023 222.654 2.85929C222.383 3.09809 222.129 3.3547 221.893 3.62741C220.501 5.28739 219.902 7.46798 218.475 9.1237C218.381 9.23464 218.275 9.33706 218.172 9.44374C215.378 11.9401 211.024 12.4607 207.918 14.7011C207.371 15.1032 206.858 15.55 206.384 16.0367C205.133 17.2755 204.011 18.6381 203.035 20.1035C201.638 22.0664 200.202 24.1105 199.758 26.4532C198.865 31.1472 202.065 35.598 202.659 40.3219C203.983 50.892 192.273 60.2716 194.49 70.7009C195.082 73.263 196.388 75.6052 198.258 77.456C193.691 81.5867 189.803 85.5938 189.803 85.5938V85.8327H189.081L189.154 86.6862H189.081L189.479 91.3162L189.081 98.0585C189.081 98.0585 189.081 98.1311 189.081 98.2676V98.3018V98.4853C189.081 98.4853 189.081 98.5578 189.081 98.6944H189.107C189.239 101.165 189.765 110.05 190.389 111.923C191.123 114.095 191.495 124.823 191.495 124.823C191.495 124.823 192.307 139.985 193.05 141.99C193.794 143.996 192.738 151.28 196.596 153C197.725 153.865 199.061 154.418 200.471 154.605C200.275 156.201 200.399 157.357 201.035 157.72C201.308 157.88 201.617 157.968 201.933 157.976C201.671 158.363 201.438 158.77 201.236 159.192C199.705 159.032 198.2 158.678 196.759 158.138C192.614 156.431 178.862 152.59 174.867 155.292C170.872 157.993 161.259 160.442 165.698 171.315C170.137 182.188 172.205 182.462 172.205 182.462C173.571 183.452 174.77 184.655 175.755 186.025C177.088 188.026 189.508 192.605 192.614 192.605C193.935 192.585 195.255 192.65 196.566 192.801C196.566 192.801 193.196 195.754 193.644 197.47C194.093 199.185 192.619 212.917 192.619 212.917C192.619 212.917 196.037 216.357 197.498 211.846L197.549 211.914C197.823 212.286 199.301 213.963 202.082 211.846C203.22 210.984 204.43 210.218 205.697 209.559L219.163 207.656C220.567 207.568 221.975 207.558 223.38 207.626C225.516 207.801 227.614 206.538 228.934 205.56C231.724 206.619 234.86 207.775 236.351 208.198C239.376 209.051 253.279 212.776 256.53 211.611C257.206 211.343 257.807 210.916 258.282 210.365L261.383 210.464L259.931 210.754C259.931 210.754 262.759 210.801 266.604 210.852L266.442 210.946L271.265 210.903C278.323 210.967 286.253 210.988 287.296 210.754C288.928 210.391 297.408 210.647 299.908 210.754H300.604C300.604 210.754 309.922 208.897 306.077 199.454C303.121 192.199 294.033 190.091 290 189.511C291.136 189.285 292.115 189.11 292.764 189.008C295.58 188.581 301.048 186.02 301.493 185.146C301.937 184.271 306.521 181.732 307.705 180.285C308.888 178.839 312.268 168.584 309.461 161.001ZM232.28 182.223L231.822 182.372L231.515 182.474L230.925 183.055C230.455 182.739 229.951 182.406 229.426 182.065C230.353 182.12 231.305 182.176 232.28 182.223Z" fill="url(#paint0_linear)"/>
<path d="M259.521 137.228C259.521 137.228 266.057 154.297 269.774 152.59C273.491 150.883 272.483 143.629 273.192 141.64C273.901 139.652 274.688 124.571 274.688 124.571C274.688 124.571 275.046 113.903 275.756 111.743C276.414 109.759 276.948 99.7523 277.037 98.1777C277.037 98.0411 277.037 97.9686 277.037 97.9686L276.332 85.5934L272.342 84.5991L263.088 88.013L261.806 95.3229L261.306 98.1777L261.093 99.3939L259.521 137.228Z" fill="#D1ABC2"/>
<path opacity="0.1" d="M261.674 134.369C261.674 134.369 267.912 139.468 269.791 139.916C271.671 140.364 272.825 144.341 272.825 144.341" fill="black"/>
<path d="M208.401 137.975C208.401 137.975 201.864 155.044 198.147 153.337C194.43 151.63 195.438 144.376 194.729 142.387C194.02 140.399 193.234 125.318 193.234 125.318C193.234 125.318 192.875 114.65 192.166 112.49C191.508 110.506 190.974 100.499 190.884 98.9247C190.884 98.7882 190.884 98.7156 190.884 98.7156L191.593 86.3405L195.584 85.3462L204.838 88.76L206.119 96.0699L206.619 98.9247L206.833 100.141L208.401 137.975Z" fill="#D1ABC2"/>
<path d="M250.967 46.6289H236.377V69.3438H250.967V46.6289Z" fill="#3E373A"/>
<path opacity="0.1" d="M250.967 46.6289H236.377V69.3438H250.967V46.6289Z" fill="black"/>
<path d="M205.838 154.976C205.838 154.976 200.852 160.451 202.702 161.445C204.552 162.439 216.519 181.074 216.519 181.074C216.519 181.074 255.825 185.909 263.238 178.655C270.65 171.4 270.501 158.441 270.501 158.441C270.501 158.441 264.545 159.721 263.895 159.025C263.246 158.33 259.679 154.976 259.679 154.976C259.679 154.976 209.256 151.92 205.838 154.976Z" fill="#4B4B5B"/>
<path opacity="0.02" d="M205.838 154.976C205.838 154.976 200.852 160.451 202.702 161.445C204.552 162.439 216.519 181.074 216.519 181.074C216.519 181.074 255.825 185.909 263.238 178.655C270.65 171.4 270.501 158.441 270.501 158.441C270.501 158.441 264.545 159.721 263.895 159.025C263.246 158.33 259.679 154.976 259.679 154.976C259.679 154.976 209.256 151.92 205.838 154.976Z" fill="black"/>
<path d="M276.597 85.7726L263.78 96.0141L259.905 96.2958L258.482 96.3982L234.587 98.1478L209.807 96.3384L206.12 96.0696L201.42 95.7282L191.593 86.3401C191.593 86.3401 198.549 78.898 204.641 73.8754C207.042 71.8911 209.311 70.2866 210.965 69.655L211.247 69.5568C212.286 69.1518 213.215 68.5052 213.955 67.6707C218.766 62.7164 223.214 50.4905 223.214 50.4905C223.214 50.4905 244.435 39.5406 241.871 53.9044C239.308 68.2681 251.411 64.7177 251.411 64.7177L255.402 66.5356L256.978 67.2568L260.999 69.096L270.069 73.2523C277.187 76.5254 276.597 85.7726 276.597 85.7726Z" fill="#D1ABC2"/>
<path opacity="0.1" d="M233.591 62.1876C244.132 62.1876 252.676 53.6532 252.676 43.1255C252.676 32.5978 244.132 24.0635 233.591 24.0635C223.051 24.0635 214.506 32.5978 214.506 43.1255C214.506 53.6532 223.051 62.1876 233.591 62.1876Z" fill="black"/>
<path opacity="0.1" d="M276.627 99.3512H190.884C190.884 99.2146 190.884 99.1421 190.884 99.1421L191.593 86.7669C191.593 86.7669 198.549 79.3247 204.641 74.3021L258.474 72.1684L260.977 69.5312L270.048 73.6876C277.17 76.9564 276.597 86.2036 276.597 86.2036C276.597 86.2036 277.571 96.9188 276.627 99.3512Z" fill="black"/>
<path d="M276.627 98.9244H190.884C190.884 98.7879 190.884 98.7153 190.884 98.7153L191.593 86.3401C191.593 86.3401 198.549 78.898 204.641 73.8753L258.474 71.7417L260.977 69.1045L270.048 73.2608C277.17 76.5296 276.597 85.7768 276.597 85.7768C276.597 85.7768 277.571 96.492 276.627 98.9244Z" fill="#EDF2F4"/>
<path opacity="0.1" d="M219.847 64.2231C219.847 64.2231 233.373 81.4374 251.39 63.8689C269.407 46.3004 253.385 103.056 253.385 103.056L214.506 107.664L219.847 64.2231Z" fill="black"/>
<path d="M219.847 65.0766C219.847 65.0766 233.373 82.2909 251.39 64.7224C269.407 47.1539 253.385 103.909 253.385 103.909L214.506 108.518L219.847 65.0766Z" fill="#EDF2F4"/>
<path opacity="0.1" d="M256.957 68.0977L258.388 89.8993L259.922 97.1537L261.093 102.701C261.093 102.701 264.083 145.374 263.229 147.508C262.374 149.642 263.656 151.348 263.836 152.484C264.015 153.619 263.656 156.469 263.797 157.749C263.938 159.03 263.797 159.597 260.525 159.141C257.252 158.684 252.689 157.89 252.689 157.89C252.689 157.89 241.153 158.744 237.167 157.323C233.181 155.902 225.632 155.897 225.632 155.897C225.632 155.897 214.237 156.183 210.537 155.757C206.837 155.33 204.838 160.31 202.42 158.885C200.001 157.459 205.265 143.667 206.974 139.682C208.683 135.696 204.697 125.6 204.697 125.6L209.824 97.1921L210.964 90.7528V70.5087L211.246 70.4105C212.286 70.0055 213.215 69.3589 213.955 68.5244L215.237 88.8965L255.398 90.3218V67.3936" fill="black"/>
<path d="M256.957 67.2441L258.388 89.0458L259.922 96.3002L261.093 101.848C261.093 101.848 264.083 144.521 263.229 146.654C262.374 148.788 263.656 150.495 263.836 151.63C264.015 152.765 263.656 155.616 263.797 156.896C263.938 158.176 263.797 158.744 260.525 158.287C257.252 157.83 252.689 157.037 252.689 157.037C252.689 157.037 241.153 157.89 237.167 156.469C233.181 155.048 225.632 155.044 225.632 155.044C225.632 155.044 214.237 155.33 210.537 154.903C206.837 154.476 204.838 159.456 202.42 158.031C200.001 156.606 205.265 142.814 206.974 138.828C208.683 134.842 204.697 124.746 204.697 124.746L209.824 96.3386L210.964 89.8993V69.6552L211.246 69.557C212.286 69.1519 213.215 68.5054 213.955 67.6709L215.237 88.043L255.398 89.4683V66.54" fill="#EDF2F4"/>
<path opacity="0.1" d="M261.576 21.7464C261.332 20.8546 260.994 19.9286 260.294 19.3312C259.625 18.8513 258.852 18.5355 258.038 18.4094C256.089 17.8976 254.108 17.5184 252.108 17.2743C251.822 16.3268 251.39 15.4297 250.826 14.6158C246.639 8.70983 240.444 3.141 233.155 1.88215C229.34 1.22072 224.918 1.81387 222.474 4.81805C221.133 6.4695 220.556 8.65863 219.202 10.2802C216.591 13.4295 211.879 13.8178 208.589 16.2544C206.833 17.5346 205.56 19.3909 204.317 21.1917C202.971 23.1419 201.586 25.1731 201.159 27.503C200.305 32.1587 203.385 36.5967 203.953 41.295C205.235 51.8053 193.956 61.1294 196.088 71.4989C197.331 77.5457 202.924 81.8045 208.709 83.9637C210.747 84.7276 213.075 85.4871 214.028 87.4416C214.455 88.295 214.528 89.2808 214.929 90.1428C216.279 93.0189 220.718 93.1299 223.102 91.0346C225.486 88.9394 226.238 85.5512 226.52 82.3891C227.665 68.5801 222.128 54.9375 222.773 41.0944C222.966 36.9082 224.145 32.1587 227.9 30.264C232.955 27.7036 239.034 31.9709 244.597 31.1558C247.229 37.5531 247.788 44.6135 246.195 51.3445C245.31 55.0271 243.781 58.5989 243.67 62.3968C243.503 68.179 246.626 73.4619 249.326 78.5741C249.906 79.5301 250.293 80.5896 250.467 81.6935C250.51 82.8136 250.301 83.9289 249.856 84.958C248.331 89.0589 245.699 92.8653 245.4 97.2308C245.312 97.7403 245.427 98.264 245.721 98.6902C246.022 98.9746 246.41 99.1491 246.823 99.1852C251.437 99.9746 255.428 95.8908 257.679 91.7899C260.189 87.2606 261.652 82.2271 261.96 77.0592C262.426 68.371 259.307 59.8236 259.499 51.1268C259.721 41.2395 264.195 31.2839 261.576 21.7464Z" fill="black"/>
<path d="M262.003 21.3197C261.759 20.4278 261.422 19.5018 260.721 18.9044C260.052 18.4245 259.279 18.1088 258.465 17.9827C256.516 17.4708 254.535 17.0916 252.535 16.8476C252.249 15.9 251.817 15.003 251.253 14.189C247.066 8.28308 240.871 2.71425 233.583 1.45539C229.767 0.793961 225.345 1.38711 222.902 4.3913C221.56 6.04274 220.983 8.23187 219.629 9.85345C217.018 13.0027 212.306 13.391 209.016 15.8277C207.26 17.1079 205.987 18.9641 204.744 20.7649C203.398 22.7151 202.014 24.7463 201.586 27.0763C200.732 31.7319 203.812 36.1699 204.381 40.8682C205.662 51.3786 194.383 60.7026 196.515 71.0722C197.758 77.1189 203.351 81.3777 209.136 83.537C211.174 84.3008 213.502 85.0604 214.455 87.0148C214.882 87.8683 214.955 88.854 215.356 89.716C216.707 92.5922 221.146 92.7031 223.53 90.6079C225.914 88.5126 226.666 85.1244 226.948 81.9623C228.093 68.1533 222.556 54.5108 223.201 40.6676C223.393 36.4814 224.572 31.7319 228.328 29.8372C233.382 27.2768 239.461 31.5441 245.024 30.7291C247.656 37.1264 248.215 44.1868 246.622 50.9177C245.738 54.6004 244.208 58.1721 244.097 61.97C243.93 67.7522 247.054 73.0351 249.754 78.1474C250.333 79.1033 250.721 80.1629 250.894 81.2668C250.937 82.3868 250.728 83.5022 250.284 84.5312C248.758 88.6321 246.126 92.4386 245.827 96.804C245.74 97.3136 245.855 97.8372 246.148 98.2634C246.449 98.5479 246.837 98.7223 247.25 98.7584C251.864 99.5479 255.855 95.4641 258.106 91.3632C260.617 86.8338 262.079 81.8004 262.387 76.6325C262.853 67.9442 259.734 59.3968 259.926 50.7001C260.148 40.8127 264.622 30.8571 262.003 21.3197Z" fill="#3E373A"/>
<path d="M252.565 210.263L269.514 210.805L267.083 198.25L254.099 199.484L252.565 210.263Z" fill="#C3C7D9"/>
<path d="M305.082 180.507C303.941 181.928 299.527 184.488 299.1 185.342C298.673 186.195 293.405 188.756 290.696 189.182C287.988 189.609 279.447 191.461 277.879 192.455C276.755 193.172 267.736 195.442 261.811 196.701C260.205 197.081 258.581 197.373 256.944 197.576C254.381 197.717 226.328 188.188 226.328 188.188L231.737 182.641L232.036 182.538C233.566 182.022 240.632 179.636 244.554 178.501C248.972 177.221 254.099 171.959 254.099 171.959C254.099 171.959 261.644 169.399 262.644 169.113C263.643 168.827 260.08 159.158 260.08 159.158C260.08 159.158 276.456 156.887 282.865 154.963C289.274 153.038 304.086 153.751 306.791 161.291C309.495 168.832 306.239 179.086 305.082 180.507Z" fill="#4B4B5B"/>
<path d="M230.455 204.545C230.455 204.545 227.183 207.959 223.906 207.677C220.629 207.395 209.17 208.53 209.17 208.53C207.094 209.358 205.149 210.483 203.398 211.872C200.719 213.98 199.297 212.298 199.032 211.94L198.985 211.872C197.558 216.357 194.285 212.938 194.285 212.938C194.285 212.938 195.708 199.283 195.272 197.576C194.836 195.869 198.087 192.938 198.087 192.938L201.933 191.96L211.674 189.468L225.632 194.303L230.455 204.545Z" fill="#EDF2F4"/>
<path opacity="0.1" d="M201.916 191.96L199.032 211.94L198.985 211.872C197.558 216.357 194.285 212.939 194.285 212.939C194.285 212.939 195.708 199.283 195.272 197.576C194.836 195.869 198.087 192.938 198.087 192.938L201.916 191.96Z" fill="black"/>
<path opacity="0.1" d="M222.073 135.128C222.073 135.128 229.618 137.689 236.172 135.128H222.073Z" fill="black"/>
<path opacity="0.1" d="M247.831 139.968C247.831 139.968 250.963 141.53 253.385 139.968H247.831Z" fill="black"/>
<path opacity="0.1" d="M247.831 143.671C247.831 143.671 253.099 144.376 254.099 142.955L247.831 143.671Z" fill="black"/>
<path opacity="0.1" d="M246.122 151.63C246.122 151.63 256.017 150.35 258.474 148.643L246.122 151.63Z" fill="black"/>
<path opacity="0.1" d="M215.929 148.643C215.929 148.643 221.483 151.771 225.615 151.63L215.929 148.643Z" fill="black"/>
<path opacity="0.1" d="M261.806 196.701C260.201 197.081 258.577 197.373 256.94 197.576C254.376 197.717 226.324 188.188 226.324 188.188L231.733 182.641L232.032 182.538C232.886 183.14 233.587 183.656 234.087 184.049C236.441 185.901 238.714 183.481 239.568 183.481C240.423 183.481 247.827 189.596 247.827 189.596C247.827 189.596 254.663 191.162 255.803 192.583C256.944 194.004 260.93 193.723 261.64 194.717C261.853 195.024 261.879 195.78 261.806 196.701Z" fill="black"/>
<path d="M209.17 159.738C209.17 159.738 202.257 160.135 198.271 158.458C194.285 156.781 181.04 152.91 177.195 155.629C173.35 158.347 164.092 160.749 168.364 171.563C172.637 182.376 174.632 182.658 174.632 182.658C175.954 183.648 177.108 184.844 178.05 186.2C179.331 188.192 191.294 192.741 194.285 192.741C197.276 192.741 202.543 192.741 209.948 197.862C217.352 202.983 224.047 203.555 224.047 203.555C224.047 203.555 233.446 207.395 236.373 208.249C239.299 209.102 252.672 212.798 255.808 211.663C258.944 210.528 260.935 203.41 260.935 203.41C260.935 203.41 262.357 197.009 261.644 196.014C260.93 195.02 256.944 195.302 255.808 193.881C254.671 192.46 247.831 190.894 247.831 190.894C247.831 190.894 240.444 184.774 239.59 184.774C238.735 184.774 236.462 187.19 234.108 185.342C229.419 181.873 224.492 178.736 219.364 175.954C213.955 173.108 209.17 159.738 209.17 159.738Z" fill="#4B4B5B"/>
<path opacity="0.1" d="M195.272 163.865C196.503 163.613 197.775 163.65 198.99 163.97C200.204 164.291 201.328 164.887 202.274 165.712C205.692 168.559 217.194 174.273 217.194 174.273" fill="black"/>
<path opacity="0.1" d="M280.729 163.685C280.729 163.685 265.489 165.989 262.644 169.117L280.729 163.685Z" fill="black"/>
<path d="M298.246 210.805H297.575C295.165 210.719 287.001 210.463 285.428 210.805C283.579 211.232 259.08 210.805 259.08 210.805L263.87 209.811C263.87 209.811 262.093 203.589 263.22 203.072C263.22 203.072 256.812 198.856 261.644 196.01C266.476 193.164 271.684 194.363 271.684 194.363L283.814 190.258L286.142 189.468C286.142 189.468 299.814 190.181 303.514 199.569C307.214 208.957 298.246 210.805 298.246 210.805Z" fill="#EDF2F4"/>
<path opacity="0.1" d="M298.246 210.805H297.575C301.553 207.528 310.55 197.551 283.813 190.279L286.142 189.49C286.142 189.49 299.814 190.202 303.514 199.59C307.213 208.979 298.246 210.805 298.246 210.805Z" fill="black"/>
<path d="M273.111 199.744C273.524 199.744 273.859 199.41 273.859 198.997C273.859 198.585 273.524 198.25 273.111 198.25C272.698 198.25 272.363 198.585 272.363 198.997C272.363 199.41 272.698 199.744 273.111 199.744Z" fill="#4B4B5B"/>
<path d="M268.766 200.977C269.179 200.977 269.514 200.643 269.514 200.23C269.514 199.818 269.179 199.483 268.766 199.483C268.353 199.483 268.018 199.818 268.018 200.23C268.018 200.643 268.353 200.977 268.766 200.977Z" fill="#4B4B5B"/>
<g opacity="0.1">
<path opacity="0.1" d="M247.596 42.4211C247.762 37.7274 246.926 33.0523 245.144 28.706C239.59 29.5339 233.506 25.2538 228.447 27.8141C224.704 29.7088 223.53 34.4583 223.32 38.6446C223.269 39.7498 223.26 40.855 223.282 41.9603C223.282 41.5677 223.282 41.1708 223.32 40.7782C223.517 36.592 224.692 31.8425 228.447 29.9478C233.506 27.3874 239.581 31.6547 245.144 30.8397C246.653 34.5211 247.484 38.4446 247.596 42.4211Z" fill="black"/>
<path opacity="0.1" d="M204.556 41.6404C204.629 40.7106 204.61 39.7758 204.5 38.8496C204.047 35.0944 201.992 31.5056 201.621 27.8442C201.142 32.2609 203.958 36.5026 204.5 40.9833C204.556 41.2137 204.556 41.4185 204.556 41.6404Z" fill="black"/>
<path opacity="0.1" d="M227.067 79.9349C226.802 83.1012 226.055 86.4852 223.649 88.5847C221.244 90.6842 216.813 90.569 215.476 87.6929C215.049 86.8394 214.985 85.8451 214.57 84.9917C213.622 83.0372 211.289 82.2777 209.251 81.5138C203.462 79.3503 197.878 75.1128 196.635 69.049C196.524 68.4997 196.448 67.9438 196.408 67.3848C196.303 68.6551 196.38 69.9338 196.635 71.1827C197.878 77.2294 203.471 81.4839 209.251 83.6475C211.289 84.4113 213.622 85.1709 214.57 87.1253C214.998 87.9788 215.07 88.9645 215.476 89.8265C216.822 92.7027 221.261 92.8136 223.649 90.7184C226.038 88.6231 226.781 85.2349 227.067 82.0686C227.197 80.402 227.242 78.7298 227.2 77.0587C227.2 78.0274 227.144 78.9833 227.067 79.9349Z" fill="black"/>
<path opacity="0.1" d="M260.067 48.677C260.067 49.2957 260.067 49.9102 260.067 50.5247C260.307 42.5875 263.22 34.6077 262.934 26.8369C262.712 34.0231 260.23 41.3714 260.067 48.677Z" fill="black"/>
<path opacity="0.1" d="M250.899 80.7843C251.004 80.278 251.037 79.7594 250.997 79.2438C250.825 78.1395 250.437 77.0796 249.856 76.1244C247.387 71.4304 244.571 66.6254 244.238 61.415C244.238 61.6369 244.208 61.8418 244.204 62.0807C244.033 67.8587 247.156 73.1459 249.856 78.2581C250.315 79.0499 250.666 79.8995 250.899 80.7843Z" fill="black"/>
<path opacity="0.1" d="M262.524 74.6093C262.205 79.7793 260.732 84.8124 258.213 89.3401C255.957 93.4409 251.971 97.5247 247.353 96.7353C246.939 96.6997 246.55 96.5235 246.25 96.236C246.164 96.1383 246.095 96.0255 246.05 95.9032C245.998 96.236 245.956 96.5731 245.93 96.9145C245.842 97.4228 245.957 97.9453 246.25 98.3697C246.55 98.6571 246.939 98.8333 247.353 98.8689C251.971 99.6584 255.957 95.5746 258.213 91.4737C260.732 86.9461 262.205 81.9129 262.524 76.743C262.575 75.7444 262.58 74.7501 262.55 73.7559C262.541 74.0418 262.541 74.3234 262.524 74.6093Z" fill="black"/>
</g>
<path opacity="0.1" d="M263.22 203.072C263.22 203.072 274.034 207.604 281.165 197.576" stroke="black" stroke-miterlimit="10"/>
<path opacity="0.1" d="M265.348 210.992C265.348 210.992 274.179 205.257 285.428 210.804" stroke="black" stroke-miterlimit="10"/>
<path opacity="0.1" d="M206.235 209.691C206.235 209.691 209.943 201.336 219.847 207.707" stroke="black" stroke-miterlimit="10"/>
<path opacity="0.1" d="M194.212 86.1268L201.774 79.2991C201.774 79.2991 231.096 77.3788 232.309 87.3344C232.309 87.3344 242.704 75.531 264.566 78.1597L273.816 85.5165L248.25 96.7225L223.406 105.33L205.107 97.1492L194.212 86.1268Z" fill="black"/>
<path d="M194.212 86.5535L201.774 79.7258C201.774 79.7258 231.096 77.8055 232.309 87.7612C232.309 87.7612 242.704 75.9578 264.566 78.5865L273.816 85.9433L248.25 97.1492L223.406 105.756L205.107 97.576L194.212 86.5535Z" fill="#EDF2F4"/>
<path opacity="0.1" d="M190.867 87.4072L194.212 127.379L229.673 129.159L228.135 89.3574L228.105 88.6874L190.867 87.4072Z" fill="black"/>
<path d="M190.867 86.5537L194.212 126.526L229.673 128.305L228.135 88.5039L228.105 87.8339L190.867 86.5537Z" fill="#EF233C"/>
<path opacity="0.1" d="M275.44 86.5537L238.859 92.0329V132.184L274.606 127.025L275.44 86.5537Z" fill="black"/>
<path d="M275.44 85.7002L238.859 91.1794V131.33L274.606 126.171L275.44 85.7002Z" fill="#EF233C"/>
<path opacity="0.3" d="M266.814 95.498L247.054 97.6914L247.485 104.417L266.801 102.309L266.814 95.498Z" fill="white"/>
<path d="M196.135 147.93L198.147 153.337C198.147 153.337 201.138 155.897 204.411 154.617C207.683 153.337 210.537 152.701 211.96 151.455C213.383 150.209 215.378 143.949 215.378 143.949C215.378 143.949 217.373 137.121 219.364 135.414C221.355 133.707 226.627 110.19 219.364 112.49C212.101 114.79 206.547 136.127 206.547 136.127C206.547 136.127 205.265 137.689 203.415 137.834C201.565 137.979 197.861 137.548 197.147 139.114C196.434 140.68 193.999 144.802 196.135 147.93Z" fill="#D1ABC2"/>
<path opacity="0.1" d="M238.859 92.0287C236.986 92.4503 235.041 92.4282 233.178 91.9644C231.315 91.5005 229.587 90.6077 228.131 89.3574L229.673 129.154C229.673 129.154 233.305 133.08 238.859 132.184V92.0287Z" fill="#2B2D42"/>
<path d="M238.859 91.1752C236.986 91.5968 235.041 91.5747 233.178 91.1109C231.315 90.647 229.587 89.7542 228.131 88.5039L229.673 128.301C229.673 128.301 233.305 132.227 238.859 131.331V91.1752Z" fill="#2B2D42"/>
<path opacity="0.1" d="M238.859 91.1752C236.986 91.5968 235.041 91.5747 233.178 91.1109C231.315 90.647 229.587 89.7542 228.131 88.5039L229.673 128.301C229.673 128.301 233.305 132.227 238.859 131.331V91.1752Z" fill="#2B2D42"/>
<path opacity="0.1" d="M239.714 86.69C239.714 86.69 254.594 82.1453 258.474 82.7854L239.714 86.69Z" fill="black"/>
<path opacity="0.1" d="M223.068 84.7061C223.068 84.7061 208.645 81.2923 206.235 82.2609L223.068 84.7061Z" fill="black"/>
<path opacity="0.1" d="M249.096 87.2578C249.096 87.2578 259.046 83.6135 262.644 85.3461L249.096 87.2578Z" fill="black"/>
<path opacity="0.1" d="M244.084 178.677C245.626 177.52 247.267 176.502 248.989 175.634C251.552 174.401 256.252 171.2 256.252 171.2" fill="black"/>
<path opacity="0.1" d="M206.235 135.128C206.235 135.128 199.993 140.228 198.117 140.676C196.242 141.124 195.084 145.101 195.084 145.101" fill="black"/>
<path d="M271.77 147.171L269.779 152.59C269.779 152.59 266.788 155.151 263.511 153.87C260.234 152.59 257.389 151.954 255.962 150.708C254.535 149.462 252.544 143.202 252.544 143.202C252.544 143.202 250.553 136.374 248.557 134.668C246.562 132.961 241.294 109.444 248.557 111.744C255.821 114.044 261.375 135.38 261.375 135.38C261.375 135.38 262.656 136.942 264.506 137.087C266.356 137.232 270.061 136.801 270.774 138.367C271.488 139.933 273.906 144.056 271.77 147.171Z" fill="#D1ABC2"/>
<path opacity="0.1" d="M268.279 137.202C268.279 137.202 272.359 139.822 272.342 142.954L268.279 137.202Z" fill="black"/>
<path d="M233.66 61.253C244.2 61.253 252.744 52.7186 252.744 42.1909C252.744 31.6633 244.2 23.1289 233.66 23.1289C223.119 23.1289 214.575 31.6633 214.575 42.1909C214.575 52.7186 223.119 61.253 233.66 61.253Z" fill="#D1ABC2"/>
<path d="M221.675 37.0743C223.991 36.7116 226.02 35.3674 228.234 34.595C233.185 32.8582 238.663 34.0488 243.674 35.6149C245.597 36.2166 247.549 36.8951 249.566 36.8951C251.582 36.8951 253.723 36.0715 254.752 34.3347C255.701 32.7388 255.517 30.6648 254.718 28.9878C253.919 27.3107 252.582 25.9623 251.232 24.6906C246.789 20.5001 241.277 16.5827 235.18 17.0095C232.728 17.1844 230.383 18.0592 228.127 19.0279C225.286 20.2505 222.521 21.6413 219.847 23.1928C217.792 24.3834 213.985 25.9751 212.802 28.1514C210.11 33.0545 217.488 37.7315 221.675 37.0743Z" fill="#3E373A"/>
<path opacity="0.1" d="M254.752 32.5423C253.723 34.2791 251.582 35.1027 249.566 35.1027C247.549 35.1027 245.597 34.4498 243.67 33.8481C238.658 32.282 233.185 31.0872 228.229 32.8282C226.02 33.6006 223.987 34.9619 221.671 35.3033C218.296 35.8324 212.861 32.8965 212.272 29.1626C211.61 33.4768 217.911 37.1723 221.671 36.5834C223.987 36.2207 226.02 34.8765 228.229 34.1084C233.185 32.3673 238.658 33.5622 243.67 35.1283C245.597 35.73 247.545 36.4085 249.566 36.3829C251.587 36.3573 253.723 35.5636 254.752 33.8225C255.286 32.8753 255.496 31.7802 255.351 30.7031C255.284 31.3516 255.08 31.9785 254.752 32.5423Z" fill="black"/>
<path d="M390.021 238C390.021 238 394.026 243.129 388.17 250.879C382.315 258.63 377.493 265.169 379.438 270C379.438 270 388.272 255.612 395.458 255.406C402.643 255.201 397.916 246.65 390.021 238Z" fill="#EF233C"/>
<path opacity="0.1" d="M409.632 263.809C409.853 264.129 410.027 264.478 410.149 264.846C414.584 270.052 416.951 274.913 412.682 275.032C408.709 275.147 403.945 282.244 402.805 284.032C402.841 284.176 402.885 284.319 402.937 284.459C402.937 284.459 408.525 275.181 413.071 275.049C417.617 274.917 414.626 269.386 409.632 263.809Z" fill="black"/>
<path d="M400.05 247.024C398.49 247.715 397.126 248.136 397.008 247.96C396.891 247.785 398.059 247.077 399.619 246.364C401.179 245.651 400.566 246.172 400.683 246.364C400.801 246.555 401.617 246.327 400.05 247.024Z" fill="#FFD037"/>
<path d="M368.983 238C368.983 238 364.978 243.129 370.833 250.879C376.689 258.63 381.511 265.169 379.559 270C379.559 270 370.732 255.612 363.539 255.406C356.346 255.201 361.108 246.65 368.983 238Z" fill="#EF233C"/>
<path opacity="0.1" d="M396.242 263.809C396.021 264.129 395.847 264.478 395.725 264.846C391.29 270.052 388.923 274.913 393.192 275.032C397.161 275.147 401.929 282.244 403.069 284.032C403.034 284.177 402.988 284.32 402.933 284.459C402.933 284.459 397.349 275.181 392.799 275.049C388.248 274.917 391.26 269.386 396.242 263.809Z" fill="black"/>
<path d="M362 245.044C362 246.678 362.219 248 362.496 248C362.774 248 363 246.678 363 245.044C363 243.41 362.715 244.182 362.445 244.182C362.175 244.182 362 243.41 362 245.044Z" fill="#FFD037"/>
<path d="M359.187 247.024C361.138 247.715 362.843 248.136 362.99 247.96C363.137 247.785 361.676 247.077 359.726 246.364C357.776 245.651 358.543 246.172 358.396 246.364C358.249 246.555 357.229 246.327 359.187 247.024Z" fill="#FFD037"/>
<path opacity="0.1" d="M379.5 310C402.42 310 421 307.09 421 303.5C421 299.91 402.42 297 379.5 297C356.58 297 338 299.91 338 303.5C338 307.09 356.58 310 379.5 310Z" fill="#D5D6DB"/>
<path d="M400.991 263.424L400.789 265.044L400.506 267.333L400.392 268.291L400.109 270.58L399.988 271.537L399.712 273.82L396.513 299.863C396.23 302.186 392.412 304 387.799 304H371.2C366.587 304 362.776 302.186 362.486 299.863L359.288 273.82L359.005 271.537L358.89 270.58L358.608 268.291L358.486 267.333L358.21 265.044L358.008 263.424C357.853 262.085 359.914 261 362.527 261H396.479C399.085 261 401.153 262.105 400.991 263.424Z" fill="#65617D"/>
<path d="M401 265L400.728 267H359.279L359 265H401Z" fill="#D5D6DB"/>
<path d="M400 268L399.729 270H359.278L359 268H400Z" fill="#D5D6DB"/>
<path d="M400 271L399.717 274H359.276L359 271H400Z" fill="#D5D6DB"/>
</g>
<defs>
<filter id="filter0_d" x="0" y="0" width="445" height="355" filterUnits="userSpaceOnUse" color-interpolation-filters="sRGB">
<feFlood flood-opacity="0" result="BackgroundImageFix"/>
<feColorMatrix in="SourceAlpha" type="matrix" values="0 0 0 0 0 0 0 0 0 0 0 0 0 0 0 0 0 0 127 0"/>
<feOffset dy="4"/>
<feGaussianBlur stdDeviation="2"/>
<feColorMatrix type="matrix" values="0 0 0 0 0.733333 0 0 0 0 0.733333 0 0 0 0 0.733333 0 0 0 0.25 0"/>
<feBlend mode="normal" in2="BackgroundImageFix" result="effect1_dropShadow"/>
<feBlend mode="normal" in="SourceGraphic" in2="effect1_dropShadow" result="shape"/>
</filter>
<linearGradient id="paint0_linear" x1="237.547" y1="214.185" x2="237.547" y2="0.000200839" gradientUnits="userSpaceOnUse">
<stop stop-color="#808080" stop-opacity="0.25"/>
<stop offset="0.54" stop-color="#808080" stop-opacity="0.12"/>
<stop offset="1" stop-color="#808080" stop-opacity="0.1"/>
</linearGradient>
<clipPath id="clip0">
<rect width="437" height="347" fill="white" transform="translate(4)"/>
</clipPath>
</defs>
</svg>
