<svg width="497" height="336" viewBox="0 0 497 336" fill="none" xmlns="http://www.w3.org/2000/svg">
<g clip-path="url(#clip0)" filter="url(#filter0_d)">
<path d="M478.581 317.657H17.6563V318.65H478.581V317.657Z" fill="#EF233C"/>
<path d="M53.9092 137.655L53.5227 138.569L478.051 318.071L478.437 317.157L53.9092 137.655Z" fill="#EF233C"/>
<path d="M478.581 137.572H17.6563V138.564H478.581V137.572Z" fill="#EF233C"/>
<path d="M416.066 159.153C416.129 180.145 412.055 200.945 404.075 220.363C396.096 239.78 384.368 257.435 369.561 272.319C367.929 273.961 366.26 275.565 364.555 277.131C362.501 279.026 360.394 280.863 358.234 282.643C357.822 282.985 357.411 283.322 356.994 283.655C348.462 290.569 339.221 296.56 329.428 301.529C328.847 301.822 328.267 302.115 327.681 302.402C326.754 302.859 325.816 303.305 324.878 303.742C290.165 319.893 250.689 322.572 214.112 311.258C150.074 291.384 103.49 230.805 103.49 159.153C103.49 71.3372 173.463 0.151367 259.778 0.151367C346.093 0.151367 416.066 71.3372 416.066 159.153Z" fill="white"/>
<path d="M294.575 125.798L294.7 125.793L294.21 124.718C293.66 123.196 292.989 121.721 292.201 120.307L277.845 88.7896C277.387 87.7837 276.645 86.9334 275.71 86.3431C274.776 85.7528 273.689 85.4482 272.584 85.4666L254.403 85.7695C253.227 85.789 252.087 86.1731 251.139 86.8686C250.191 87.5641 249.482 88.5367 249.111 89.6521L237.682 123.976C237.305 124.938 236.979 125.918 236.704 126.913L236.316 128.078L236.407 128.074C235.348 132.601 235.349 137.311 236.409 141.837C237.47 146.363 239.561 150.584 242.521 154.169C245.48 157.754 249.228 160.607 253.472 162.506C257.715 164.405 262.34 165.299 266.986 165.117C271.632 164.935 276.173 163.683 280.255 161.458C284.337 159.233 287.85 156.096 290.52 152.29C293.191 148.484 294.946 144.114 295.649 139.518C296.353 134.923 295.985 130.228 294.575 125.798Z" fill="#7D8B91"/>
<path d="M260.693 93.4772L254.972 124.749L255.617 124.867L261.338 93.5953L260.693 93.4772Z" fill="white"/>
<path d="M267.568 93.3623L266.926 93.5017L273.68 124.566L274.321 124.427L267.568 93.3623Z" fill="white"/>
<path d="M252.421 70.3779L275.718 69.9898C275.892 69.9869 276.06 70.0533 276.185 70.1743C276.31 70.2953 276.382 70.4611 276.385 70.6351C276.388 70.8091 276.322 70.9772 276.201 71.1023C276.08 71.2274 275.914 71.2993 275.74 71.3022L252.443 71.6903C252.357 71.6917 252.272 71.6762 252.191 71.6445C252.111 71.6129 252.038 71.5657 251.976 71.5058C251.914 71.4459 251.865 71.3744 251.83 71.2953C251.796 71.2162 251.778 71.1312 251.776 71.045C251.775 70.9589 251.79 70.8732 251.822 70.7931C251.854 70.7129 251.901 70.6398 251.961 70.5778C252.021 70.5159 252.092 70.4663 252.171 70.432C252.25 70.3977 252.335 70.3794 252.421 70.3779Z" fill="#2B2D42"/>
<path d="M252.667 75.2966L275.964 74.9085C276.138 74.9056 276.306 74.972 276.431 75.093C276.557 75.214 276.628 75.3798 276.631 75.5538C276.634 75.7278 276.568 75.8959 276.447 76.021C276.326 76.1461 276.16 76.218 275.986 76.2209L252.689 76.609C252.515 76.6119 252.347 76.5455 252.222 76.4245C252.097 76.3035 252.025 76.1378 252.022 75.9637C252.019 75.7897 252.086 75.6216 252.207 75.4965C252.328 75.3714 252.493 75.2995 252.667 75.2966Z" fill="#2B2D42"/>
<path d="M252.914 80.2151L276.21 79.827C276.384 79.8241 276.552 79.8905 276.678 80.0115C276.803 80.1325 276.875 80.2982 276.877 80.4722C276.88 80.6463 276.814 80.8143 276.693 80.9394C276.572 81.0645 276.406 81.1365 276.232 81.1394L252.936 81.5274C252.761 81.5303 252.593 81.464 252.468 81.343C252.343 81.222 252.271 81.0562 252.268 80.8822C252.265 80.7081 252.332 80.5401 252.453 80.415C252.574 80.2899 252.74 80.218 252.914 80.2151Z" fill="#2B2D42"/>
<path d="M263.992 65.5037C259.371 65.5807 255.668 68.2182 255.721 71.3949L272.455 71.1161C272.402 67.9395 268.613 65.4267 263.992 65.5037Z" fill="#2B2D42"/>
<path d="M266.567 129.367C267.48 129.429 268.345 129.798 269.021 130.415C269.194 130.559 269.364 130.709 269.534 130.86C270.074 131.423 270.735 131.856 271.468 132.125C273.071 132.562 274.654 131.295 275.99 129.997L276.448 130.467C274.979 131.895 273.219 133.282 271.295 132.758C270.464 132.466 269.713 131.984 269.1 131.352C268.934 131.205 268.769 131.06 268.602 130.92C268.053 130.466 266.994 129.758 266.053 130.125C265.662 130.315 265.314 130.584 265.031 130.913C264.811 131.144 264.574 131.358 264.321 131.552C263.804 131.919 263.19 132.124 262.557 132.143C261.923 132.162 261.298 131.993 260.76 131.658C260.566 131.529 260.38 131.389 260.202 131.24C259.91 130.95 259.546 130.743 259.148 130.64C258.591 130.562 258.084 130.96 257.547 131.381C257.039 131.874 256.39 132.197 255.69 132.303C255.666 132.304 255.642 132.305 255.618 132.306C254.31 132.327 253.481 131.019 252.968 130.025L253.551 129.724C254.248 131.076 254.92 131.692 255.655 131.648C256.217 131.54 256.735 131.267 257.142 130.864C257.763 130.377 258.406 129.873 259.239 129.99C259.758 130.103 260.235 130.359 260.615 130.729C260.775 130.864 260.941 130.989 261.114 131.105C261.542 131.367 262.036 131.498 262.537 131.483C263.038 131.468 263.524 131.308 263.935 131.021C264.16 130.847 264.371 130.656 264.567 130.449C264.912 130.053 265.337 129.734 265.814 129.514C266.054 129.42 266.309 129.37 266.567 129.367Z" fill="white"/>
<path d="M264.732 0H264.05V65.4767H264.732V0Z" fill="#2B2D42"/>
<path d="M470.591 113.444C466.432 128.816 452.187 138.337 452.187 138.337C452.187 138.337 444.685 122.934 448.844 107.562C453.003 92.1897 467.247 82.6694 467.247 82.6694C467.247 82.6694 474.75 98.0722 470.591 113.444Z" fill="white"/>
<path d="M432.757 113.444C436.916 128.816 451.161 138.337 451.161 138.337C451.161 138.337 458.663 122.934 454.504 107.562C450.345 92.1897 436.1 82.6694 436.1 82.6694C436.1 82.6694 428.598 98.0722 432.757 113.444Z" fill="white"/>
<path d="M438.868 110.14C450.28 121.248 451.674 138.324 451.674 138.324C451.674 138.324 434.565 137.39 423.154 126.282C411.742 115.174 410.348 98.0984 410.348 98.0984C410.348 98.0984 427.456 99.0324 438.868 110.14Z" fill="#EF233C"/>
<path d="M464.48 110.14C453.068 121.248 451.674 138.324 451.674 138.324C451.674 138.324 468.782 137.39 480.194 126.282C491.606 115.174 493 98.0984 493 98.0984C493 98.0984 475.892 99.0324 464.48 110.14Z" fill="#EF233C"/>
<path d="M64.2429 293.034C60.0841 308.406 45.8392 317.926 45.8392 317.926C45.8392 317.926 38.3371 302.523 42.4959 287.151C46.6547 271.779 60.8996 262.259 60.8996 262.259C60.8996 262.259 68.4018 277.662 64.2429 293.034Z" fill="white"/>
<path d="M26.4092 293.034C30.5681 308.406 44.813 317.926 44.813 317.926C44.813 317.926 52.3151 302.523 48.1563 287.151C43.9974 271.779 29.7525 262.259 29.7525 262.259C29.7525 262.259 22.2504 277.662 26.4092 293.034Z" fill="white"/>
<path d="M32.5203 289.73C43.9322 300.838 45.3261 317.913 45.3261 317.913C45.3261 317.913 28.2176 316.979 16.8058 305.871C5.39387 294.763 4 277.688 4 277.688C4 277.688 21.1085 278.622 32.5203 289.73Z" fill="#EF233C"/>
<path d="M58.1319 289.73C46.72 300.838 45.3261 317.913 45.3261 317.913C45.3261 317.913 62.4346 316.979 73.8464 305.871C85.2583 294.763 86.6522 277.688 86.6522 277.688C86.6522 277.688 69.5437 278.622 58.1319 289.73Z" fill="#EF233C"/>
<path d="M336.591 151.025C341.862 151.025 346.134 146.753 346.134 141.483C346.134 136.213 341.862 131.941 336.591 131.941C331.32 131.941 327.048 136.213 327.048 141.483C327.048 146.753 331.32 151.025 336.591 151.025Z" fill="#2B2D42"/>
<path d="M326.366 137.394C326.366 135.04 327.237 132.77 328.809 131.019C330.382 129.268 332.547 128.16 334.887 127.908C333.554 127.762 332.206 127.899 330.929 128.309C329.653 128.72 328.478 129.394 327.479 130.289C326.481 131.184 325.683 132.279 325.136 133.503C324.59 134.728 324.307 136.053 324.307 137.394C324.307 138.734 324.59 140.06 325.136 141.284C325.683 142.508 326.481 143.603 327.479 144.498C328.478 145.393 329.653 146.067 330.929 146.478C332.206 146.888 333.554 147.025 334.887 146.879C332.547 146.627 330.382 145.519 328.809 143.768C327.237 142.017 326.366 139.747 326.366 137.394Z" fill="#2B2D42"/>
<path d="M327.048 141.483C327.048 141.483 325.566 148.299 334.827 151.025L327.048 141.483Z" fill="white"/>
<path d="M340.538 206.299C358.232 206.299 372.576 191.956 372.576 174.264C372.576 156.572 358.232 142.229 340.538 142.229C322.844 142.229 308.5 156.572 308.5 174.264C308.5 191.956 322.844 206.299 340.538 206.299Z" fill="#2B2D42"/>
<path d="M358.234 282.643C357.823 282.985 357.411 283.322 356.994 283.655C348.462 290.568 339.221 296.56 329.428 301.529C328.847 301.822 328.267 302.115 327.681 302.402C326.754 302.859 325.816 303.305 324.878 303.742L308.455 298.27L308.644 294.336V294.321L309.358 279.319L309.602 274.189L358.234 282.643Z" fill="#D1ABC2"/>
<path d="M327.681 302.402C326.754 302.859 325.816 303.305 324.878 303.742C318.463 306.741 311.846 309.289 305.077 311.367C305.042 311.268 305.022 311.164 305.017 311.059L308.455 294.256L308.644 294.336L327.681 302.402Z" fill="#2B2D42"/>
<path d="M332.541 208.251C344.258 208.251 353.757 198.753 353.757 187.037C353.757 175.321 344.258 165.823 332.541 165.823C320.823 165.823 311.324 175.321 311.324 187.037C311.324 198.753 320.823 208.251 332.541 208.251Z" fill="#D1ABC2"/>
<path d="M349.743 188.184C349.743 188.184 353.183 205.384 359.491 209.398L324.513 250.68L311.324 238.066L321.072 220.865C321.072 220.865 331.967 214.558 328.527 205.958L349.743 188.184Z" fill="#D1ABC2"/>
<path d="M391.253 245.152C385.036 254.972 377.762 264.082 369.561 272.318C369.209 264.629 368.445 258.289 366.947 256.413C366.943 256.413 366.939 256.411 366.937 256.408L348.594 250.678C348.594 250.678 352.608 212.836 362.357 211.119C362.357 211.119 363.771 211.407 365.969 212.072C373.054 214.205 388.266 220.218 390.454 232.903C391.077 236.955 391.344 241.053 391.253 245.152Z" fill="#D1ABC2"/>
<path d="M321.072 220.865C321.072 220.865 303.87 220.292 292.975 234.052C282.08 247.813 255.703 258.133 255.703 258.133L189.761 283.934C189.761 283.934 177.719 262.72 170.265 270.174C162.81 277.627 184.027 296.548 193.775 294.255C203.523 291.961 262.584 274.187 262.584 274.187L309.604 252.973L321.072 220.865Z" fill="#D1ABC2"/>
<path d="M366.947 256.413L364.555 277.131C362.501 279.026 360.394 280.863 358.234 282.642C357.823 282.985 357.411 283.322 356.994 283.654C340.437 278.579 314.494 279.145 309.358 279.319C308.773 279.333 308.455 279.348 308.455 279.348L307.885 267.308C302.383 265.477 300.577 261.474 300.527 257.068C300.443 249.081 306.163 239.784 306.163 239.784C307.19 238.757 314.866 224.206 316.453 221.19C316.637 220.838 316.741 220.644 316.741 220.644L323.623 218.928C323.623 218.928 323.603 218.982 323.563 219.082C322.948 220.803 317.6 236.376 326.808 236.917C335.868 237.452 355.575 212.012 358.289 208.445C358.492 208.177 358.601 208.033 358.601 208.033L366.059 212.047C366.029 212.057 365.999 212.062 365.969 212.072C361.415 213.337 357.197 224.306 357.197 224.306C345.305 245.261 366.416 256.146 366.937 256.408C366.939 256.411 366.943 256.413 366.947 256.413Z" fill="#EDF2F4"/>
<path d="M333.693 162.135C322.399 162.135 313.244 167.476 313.244 174.063C313.244 177.011 315.084 179.705 318.122 181.786L322.059 178.934L320.988 183.402C321.432 183.608 321.886 183.807 322.359 183.991L328.24 177.13V185.559C330.043 185.848 331.867 185.992 333.693 185.991C344.987 185.991 354.143 180.651 354.143 174.063C354.143 167.476 344.987 162.135 333.693 162.135Z" fill="#2B2D42"/>
<path d="M375.583 165.933C380.854 165.933 385.126 161.66 385.126 156.39C385.126 151.12 380.854 146.848 375.583 146.848C370.313 146.848 366.04 151.12 366.04 156.39C366.04 161.66 370.313 165.933 375.583 165.933Z" fill="#2B2D42"/>
<path d="M365.358 152.301C365.359 149.948 366.229 147.677 367.802 145.926C369.374 144.175 371.539 143.067 373.879 142.815C373.539 142.778 373.198 142.759 372.856 142.759C371.559 142.757 370.275 143.02 369.082 143.531C367.89 144.042 366.814 144.791 365.921 145.732C365.028 146.673 364.336 147.786 363.887 149.004C363.439 150.221 363.244 151.518 363.313 152.813C363.383 154.109 363.716 155.376 364.292 156.539C364.868 157.701 365.676 158.734 366.664 159.574C367.653 160.414 368.803 161.043 370.044 161.424C371.284 161.804 372.589 161.928 373.879 161.787C371.539 161.535 369.374 160.427 367.802 158.676C366.229 156.925 365.359 154.655 365.358 152.301Z" fill="#2B2D42"/>
<path d="M366.04 156.39C366.04 156.39 364.558 163.206 373.82 165.933L366.04 156.39Z" fill="white"/>
<path d="M354.617 189.043C355.532 189.043 356.274 187.375 356.274 185.317C356.274 183.258 355.532 181.59 354.617 181.59C353.702 181.59 352.961 183.258 352.961 185.317C352.961 187.375 353.702 189.043 354.617 189.043Z" fill="#D1ABC2"/>
<path d="M171.789 199.735L146.646 205.826L146.564 205.845L143.83 208.319L143.044 209.031L141.357 208.725L138.372 208.186L140.452 201.165L140.842 187.773L139.412 179.582L147.344 174.121C147.344 174.121 162.817 173.211 171.789 199.735Z" fill="#D5D6DB"/>
<path opacity="0.1" d="M146.646 205.826C146.305 206.552 147.019 206.073 146.629 206.82L142.988 207.99L141.357 208.725L138.372 208.185L140.452 201.165L140.842 187.773L139.412 179.582L147.344 174.121C147.344 174.121 155.857 186.176 146.646 205.826Z" fill="black"/>
<path d="M201.435 180.492C201.435 180.492 168.408 195.834 155.015 198.174C141.623 200.515 142.793 213.906 142.793 213.906L217.819 202.205C217.819 202.205 215.218 190.113 201.435 180.492Z" fill="#D5D6DB"/>
<path d="M137.722 177.892C137.722 177.892 143.443 191.803 137.072 209.096L144.483 212.476L147.344 209.096L147.409 208.771L139.542 208.055C139.542 208.055 146.043 190.633 140.712 178.542C140.712 178.542 139.542 175.942 137.722 177.892Z" fill="white"/>
<path d="M246.815 280.994C217.559 274.494 190.318 287.95 190.318 287.95L190.244 287.884L179.396 278.199L137.007 209.031L147.344 209.096C176.08 191.934 216.519 194.274 216.519 194.274C233.942 214.036 246.815 280.994 246.815 280.994Z" fill="#2B2D42"/>
<path opacity="0.1" d="M190.244 287.884L179.396 278.199L137.007 209.031L147.344 209.096C147.344 209.096 188.544 263.506 190.244 287.884Z" fill="black"/>
<path d="M195.005 233.915C203.862 231.199 209.641 224.433 207.915 218.804C206.188 213.175 197.608 210.813 188.752 213.53C179.895 216.246 174.115 223.011 175.842 228.64C177.569 234.27 186.148 236.631 195.005 233.915Z" fill="#EDF2F4"/>
<path d="M17.7897 146.922C22.996 146.922 27.2166 142.702 27.2166 137.496C27.2166 132.29 22.996 128.07 17.7897 128.07C12.5834 128.07 8.36285 132.29 8.36285 137.496C8.36285 142.702 12.5834 146.922 17.7897 146.922Z" fill="#EF233C"/>
<path d="M478.218 328C483.424 328 487.645 323.78 487.645 318.574C487.645 313.368 483.424 309.148 478.218 309.148C473.012 309.148 468.791 313.368 468.791 318.574C468.791 323.78 473.012 328 478.218 328Z" fill="#EF233C"/>
<path d="M58.9702 145.93C63.0805 145.93 66.4125 142.599 66.4125 138.489C66.4125 134.379 63.0805 131.047 58.9702 131.047C54.86 131.047 51.528 134.379 51.528 138.489C51.528 142.599 54.86 145.93 58.9702 145.93Z" fill="white"/>
<path d="M478.218 145.93C482.328 145.93 485.66 142.599 485.66 138.489C485.66 134.379 482.328 131.047 478.218 131.047C474.108 131.047 470.776 134.379 470.776 138.489C470.776 142.599 474.108 145.93 478.218 145.93Z" fill="white"/>
<path d="M17.7897 325.023C21.8999 325.023 25.2319 321.692 25.2319 317.582C25.2319 313.472 21.8999 310.14 17.7897 310.14C13.6794 310.14 10.3474 313.472 10.3474 317.582C10.3474 321.692 13.6794 325.023 17.7897 325.023Z" fill="white"/>
</g>
<defs>
<filter id="filter0_d" x="0" y="0" width="497" height="336" filterUnits="userSpaceOnUse" color-interpolation-filters="sRGB">
<feFlood flood-opacity="0" result="BackgroundImageFix"/>
<feColorMatrix in="SourceAlpha" type="matrix" values="0 0 0 0 0 0 0 0 0 0 0 0 0 0 0 0 0 0 127 0"/>
<feOffset dy="4"/>
<feGaussianBlur stdDeviation="2"/>
<feColorMatrix type="matrix" values="0 0 0 0 0.983333 0 0 0 0 0.983333 0 0 0 0 0.983333 0 0 0 0.25 0"/>
<feBlend mode="normal" in2="BackgroundImageFix" result="effect1_dropShadow"/>
<feBlend mode="normal" in="SourceGraphic" in2="effect1_dropShadow" result="shape"/>
</filter>
<clipPath id="clip0">
<rect width="489" height="328" fill="white" transform="translate(4)"/>
</clipPath>
</defs>
</svg>
